<svg width="59" height="50" viewBox="0 0 59 50" fill="none" xmlns="http://www.w3.org/2000/svg">
<path d="M55.9155 49.9626C50.8332 49.8271 45.9519 49.7151 40.0334 49.609C38.2183 49.5737 34.264 49.4971 31.2497 49.4323C28.2353 49.3675 23.8013 49.2732 21.3963 49.226C18.9913 49.1789 15.7241 49.1141 14.1359 49.0787C12.5477 49.0493 9.82509 48.9962 8.07482 48.9609C2.5323 48.8548 2.3119 48.843 2.08501 48.7193C1.74144 48.5307 1.78682 48.9668 1.59234 43.5399C1.50807 41.1476 1.40435 38.4548 1.07374 29.5456C1.02188 28.1196 0.931129 25.8393 0.879269 24.4781C0.743137 20.9663 0.613488 17.3955 0.425496 12.1042C0.146749 4.30273 0.0754423 2.28754 0.0430299 1.60403C-0.00882991 0.584653 -0.58577 0.7025 4.70393 0.637684C7.16727 0.608222 11.2318 0.561083 13.747 0.525729C16.2622 0.490375 21.3833 0.425559 25.1237 0.37842C28.8706 0.331281 33.9269 0.266465 36.3708 0.231111C38.8147 0.201649 43.7155 0.148618 47.2614 0.113264C50.8073 0.0838023 54.4569 0.0366635 55.3645 0.0189865C56.9786 -0.0163677 57.0175 -0.0104753 57.1601 0.107372C57.4583 0.366635 57.4389 0.0720181 57.7306 9.45265C57.8991 14.8383 57.9769 17.425 58.0871 20.8249C58.126 21.9268 58.1844 23.7711 58.2168 24.9201C58.2881 27.1768 58.4955 33.6054 58.6057 36.7048C58.6381 37.7595 58.7159 39.9456 58.7743 41.566C58.8261 43.1864 58.9104 45.561 58.9558 46.8396C58.9947 48.1183 59.0141 49.2673 58.9882 49.3969C58.9623 49.5324 58.865 49.6974 58.7419 49.8035C58.502 50.0274 58.4631 50.0274 55.9155 49.9626ZM57.763 48.3127C57.763 47.588 57.6334 43.7462 57.4389 38.9439C57.3676 37.1762 57.2963 35.2435 57.2768 34.6425C57.1018 29.6281 56.7777 20.6363 56.6934 18.792C56.4471 13.153 56.3304 10.2245 56.2331 7.18409C56.1813 5.38692 56.1165 3.33049 56.0905 2.61751L56.0451 1.3212L53.0956 1.30352C51.475 1.29173 47.203 1.30941 43.5988 1.34477C40.001 1.38012 34.0307 1.43904 30.3421 1.46851C15.5167 1.60403 1.36546 1.75723 1.32008 1.78669C1.3136 1.79258 1.33304 4.07882 1.36546 6.86001C1.41731 11.3264 1.54048 15.5571 1.7544 20.5008C1.78682 21.3257 1.84516 22.8283 1.88405 23.83C1.92295 24.8376 1.99426 26.6524 2.04612 27.8663C2.26652 32.8924 2.33134 34.5069 2.37024 35.8209C2.38969 36.581 2.44803 38.4548 2.49989 39.975C2.55175 41.5012 2.62306 43.8994 2.66195 45.3076C2.70085 46.7159 2.74622 47.9003 2.75919 47.9356C2.78512 48.0063 2.96014 48.0122 12.6774 48.189C16.2103 48.2538 20.4239 48.3363 22.0446 48.3716C28.6826 48.5072 41.68 48.7311 49.3034 48.843C55.2737 48.9314 55.4488 48.9314 56.6804 48.9491L57.763 48.9609V48.3127Z" fill="black"/>
<path d="M52.4474 48.2715C51.8381 48.248 27.3862 47.8885 11.0892 47.6587C8.38606 47.6234 6.27925 47.5704 6.21443 47.5409C6.13016 47.4996 6.09774 47.4113 6.09774 47.2581C6.09774 46.9458 5.88382 46.333 5.65694 46.0148C5.26799 45.4668 4.67808 45.0838 4.11411 45.0249C3.95853 45.0131 3.78998 44.9541 3.7446 44.9011C3.66682 44.8304 3.6344 44.4062 3.57606 42.9507C3.53717 41.9314 3.45938 40.2226 3.40752 39.1502C3.35566 38.0837 3.2649 36.1215 3.21304 34.7898C2.96671 28.7443 2.92133 27.6837 2.88892 27.1592C2.86947 26.8528 2.81113 25.5919 2.75927 24.3604C2.57776 20.1709 2.46756 17.59 2.37032 15.5808C2.24715 13.0353 2.17585 11.2381 2.03971 7.59662C1.98137 5.9939 1.91006 4.65633 1.87765 4.62098C1.7869 4.53259 1.81283 4.25565 1.92303 4.15548C1.97489 4.10245 2.1175 4.0612 2.23419 4.0612C2.61665 4.0612 3.07043 3.88443 3.39455 3.59571C3.76405 3.27752 3.91963 3.01826 4.06225 2.51151C4.12059 2.31117 4.19838 2.12851 4.24376 2.10494C4.37989 2.02245 4.6327 2.0578 4.76884 2.17565C4.91145 2.2935 4.9309 2.29939 10.5447 2.24047C13.6433 2.20511 17.1439 2.16386 18.3172 2.14619C19.497 2.12851 24.5728 2.06959 29.5967 2.02834C42.8015 1.9046 50.1202 1.828 51.3584 1.79854C52.4021 1.77497 52.4345 1.78086 52.4734 1.89871C52.4928 1.96352 52.4863 2.08726 52.4734 2.17565C52.4215 2.39367 52.8234 3.10075 53.1346 3.35412C53.53 3.66641 54.4829 4.00228 54.9886 4.00228C55.0858 4.00228 55.2284 4.05531 55.2997 4.12013C55.4164 4.22619 55.4294 4.31457 55.4294 4.99219C55.4294 5.75231 55.6952 15.4334 55.8183 18.9983C55.8767 20.8603 55.9998 25.0674 56.1425 30.2822C56.2202 33.1694 56.3305 36.9229 56.3953 38.9439L56.4471 40.3876L56.4536 39.1089C56.4666 37.9305 56.4731 37.8244 56.5833 37.8244C56.687 37.8244 56.6935 37.9128 56.6675 39.0736C56.6611 39.763 56.6805 41.1182 56.7259 42.0846C56.7713 43.0804 56.7842 44.2294 56.7583 44.7243L56.7064 45.6023H56.4212C55.371 45.6023 54.1977 46.221 53.718 47.0224C53.5235 47.3464 53.355 47.8002 53.355 48.0241C53.355 48.2185 53.2383 48.3128 53.0373 48.301C52.9401 48.2951 52.6808 48.2833 52.4474 48.2715ZM50.5027 47.6705C50.5027 47.5703 50.1138 47.317 49.8674 47.2522C49.3359 47.1225 48.6617 47.205 48.3829 47.4407C48.1107 47.6705 48.0329 47.6587 50.036 47.7118C50.2888 47.7177 50.5027 47.7 50.5027 47.6705ZM52.6419 47.5704C52.6419 47.1991 52.3048 46.9988 51.676 46.9929C51.313 46.9929 51.2482 47.0106 51.1185 47.1461C51.0148 47.2522 50.9889 47.3464 51.0083 47.5055L51.0343 47.7236H51.8381H52.6419V47.5704ZM45.0574 47.6116C45.0574 47.4996 44.5129 47.1343 44.299 47.099C43.7933 47.0106 43.2423 47.2227 43.2423 47.4937C43.2423 47.5939 43.3266 47.6057 44.0397 47.6234C44.474 47.6293 44.8824 47.647 44.9472 47.6528C45.0056 47.6587 45.0574 47.6411 45.0574 47.6116ZM47.5208 47.5704C47.2809 47.3111 46.3928 47.2227 45.9715 47.4171C45.5177 47.6234 45.6279 47.6646 46.6456 47.6646C47.5013 47.6646 47.5921 47.6528 47.5208 47.5704ZM42.5941 47.5527C42.5941 47.5173 42.3996 47.4054 42.1598 47.2993C41.7708 47.1284 41.6606 47.1049 41.2003 47.1049C40.7595 47.1049 40.6493 47.1284 40.4743 47.2404C40.0983 47.482 40.1826 47.5409 40.9281 47.5645C42.4191 47.6057 42.5941 47.6057 42.5941 47.5527ZM39.6121 47.4702C39.6121 47.37 39.3853 47.1756 39.0935 47.04C38.912 46.9517 38.724 46.9281 38.199 46.9281C37.5442 46.9281 37.5248 46.934 37.3692 47.0931C37.2849 47.1815 37.2136 47.3111 37.2136 47.37C37.2136 47.4702 37.272 47.4879 37.7193 47.5055C39.0741 47.5586 39.6121 47.5468 39.6121 47.4702ZM36.5719 47.3877C36.3579 47.0283 35.8393 46.7808 35.3013 46.7808C34.7438 46.7808 34.3808 46.9634 34.2706 47.2934C34.2252 47.423 34.2382 47.423 34.8605 47.4466C36.6172 47.4996 36.6367 47.4937 36.5719 47.3877ZM30.7312 47.3818C30.7312 47.3052 30.4654 47.099 30.219 46.987C29.681 46.7395 28.7475 46.8456 28.4558 47.1815L28.3197 47.3405L29.1235 47.37C30.5172 47.4289 30.7312 47.4289 30.7312 47.3818ZM33.6483 47.3818C33.6483 47.2934 33.363 47.0813 33.1167 46.987C32.7991 46.8692 31.9563 46.8692 31.7035 46.987C31.522 47.0754 31.3794 47.2345 31.3794 47.3641C31.3794 47.4054 31.7554 47.4289 32.5138 47.4289C33.1362 47.4289 33.6483 47.4054 33.6483 47.3818ZM27.6779 47.2757C27.4575 47.0341 27.088 46.9281 26.4398 46.9281C25.9082 46.9281 25.785 46.9458 25.6359 47.0518C25.247 47.3111 25.3183 47.3288 27.0945 47.3582C27.6974 47.37 27.7557 47.3582 27.6779 47.2757ZM21.3964 47.2581C21.3964 47.1756 20.8 46.8574 20.5148 46.7867C20.3527 46.7454 20.1777 46.7454 19.9767 46.7867C19.6656 46.8456 19.1923 47.0931 19.1923 47.1932C19.1923 47.2463 19.6007 47.2698 20.8648 47.2993C21.1565 47.3052 21.3964 47.2875 21.3964 47.2581ZM24.5987 47.1873C24.5339 47.1166 24.32 46.9988 24.132 46.9222C23.7495 46.7631 23.1337 46.7336 22.7512 46.8456C22.4984 46.9222 22.1095 47.1697 22.1095 47.2581C22.1095 47.2875 22.6345 47.3111 23.4189 47.3111H24.7219L24.5987 47.1873ZM15.1538 47.1638C15.1602 47.1343 15.0695 47.04 14.9398 46.9575C14.5963 46.7513 14.0128 46.7277 13.6239 46.9163C13.1377 47.1461 13.1961 47.1873 14.0842 47.2109C15.1084 47.2345 15.1278 47.2345 15.1538 47.1638ZM18.3107 47.1873C18.2913 47.152 18.0903 47.0459 17.8699 46.9517C17.2217 46.6747 16.4308 46.7219 16.003 47.0636C15.9381 47.1107 15.8863 47.1756 15.8863 47.205C15.8863 47.2286 16.4438 47.2522 17.1244 47.2522C18.0061 47.2522 18.3431 47.2345 18.3107 47.1873ZM12.3987 47.0224C11.7958 46.551 10.4669 46.5451 9.90296 47.0047C9.78627 47.099 9.79924 47.1049 10.1882 47.1402C10.4151 47.1579 11.0568 47.1756 11.6078 47.1815L12.6126 47.1873L12.3987 47.0224ZM45.6084 47.0754C45.9779 46.9045 47.1837 46.9045 47.5532 47.0754L47.7995 47.1932L48.2274 46.9988C48.6228 46.822 48.6941 46.8102 49.3034 46.8161C49.7443 46.8161 50.0424 46.8456 50.2434 46.9163C50.5286 47.0106 50.5351 47.0106 50.6972 46.8692C50.937 46.6629 51.1639 46.604 51.7538 46.604C52.1428 46.604 52.3632 46.6394 52.5706 46.7219C52.7262 46.7867 52.8558 46.8397 52.8688 46.8397C52.8753 46.8397 53.0049 46.6688 53.1476 46.4685C53.4328 46.0678 54.2172 45.4609 54.6709 45.29C54.8006 45.237 54.9108 45.1839 54.9108 45.1663C54.9108 45.1486 54.846 45.0425 54.7682 44.9247C54.5802 44.6301 54.5867 44.1351 54.7811 43.758C54.8589 43.6048 54.9497 43.4634 54.9821 43.4457C55.0145 43.428 54.9302 43.2925 54.7941 43.1393C54.444 42.7563 54.3274 42.4499 54.3274 41.9078C54.3274 41.242 54.4765 40.8236 54.8524 40.4465L55.1636 40.1401L54.9108 39.8867C54.4829 39.4684 54.3598 39.1737 54.3598 38.5845C54.3598 38.1308 54.3792 38.0424 54.5737 37.7065L54.7811 37.3353L54.6061 37.1291C54.3533 36.8286 54.269 36.5575 54.2625 36.0449C54.2625 35.4733 54.4376 35.0196 54.8006 34.6602L55.0534 34.4068L54.8589 34.2065C54.5931 33.9295 54.4959 33.6349 54.5413 33.2048C54.5867 32.8041 54.7163 32.4624 54.9497 32.1854C55.034 32.0852 55.1053 31.9851 55.1053 31.9615C55.1053 31.9438 55.0015 31.8378 54.8784 31.7258C54.4894 31.3664 54.4246 31.2073 54.4246 30.5473C54.4246 30.0229 54.444 29.9227 54.5931 29.6635C54.6904 29.4985 54.8265 29.304 54.8978 29.2216L55.0275 29.0742L54.8589 28.8091C54.7033 28.5734 54.6839 28.485 54.6839 28.0136C54.6904 27.666 54.7293 27.389 54.8006 27.2182C54.8784 27.0178 54.8849 26.9471 54.8265 26.9294C54.6191 26.8646 54.1394 26.352 54.0681 26.0986C53.9125 25.5801 54.1199 24.8553 54.5283 24.4723L54.7293 24.2838L54.5154 23.9479C54.3338 23.6592 54.3014 23.5295 54.2755 23.1289C54.2431 22.5868 54.3209 22.2627 54.5543 21.9504L54.7163 21.7324L54.5218 21.4967C53.9903 20.825 53.9773 19.6111 54.4959 18.9865L54.658 18.7921L54.4311 18.6094C54.3079 18.5093 54.1264 18.2912 54.0357 18.1204C53.718 17.5252 53.8347 16.4823 54.2885 15.9461L54.5024 15.6927L54.3468 15.4865C53.9514 14.968 53.8152 13.9545 54.0616 13.3711C54.1329 13.2061 54.2625 12.9763 54.3598 12.8703L54.5218 12.6699L54.295 12.3812C53.9773 11.9805 53.8736 11.6682 53.8736 11.1379C53.8736 10.6135 53.9968 10.1834 54.2236 9.90053C54.3857 9.70608 54.3857 9.70608 54.2561 9.58234C53.6986 9.03435 53.6986 7.84999 54.269 7.03684C54.3792 6.87775 54.444 6.73633 54.4052 6.72455C54.1588 6.65384 53.8023 6.32976 53.6467 6.04103C53.4263 5.62857 53.4393 5.222 53.6986 4.76829C53.8995 4.41474 53.8995 4.41474 53.7958 4.41474C53.6337 4.41474 52.9985 4.10834 52.7197 3.90211C52.5641 3.78426 52.3502 3.58392 52.24 3.4484C52.1039 3.27752 51.9807 3.19503 51.7798 3.14199C51.6307 3.10664 51.4621 3.0595 51.4038 3.03593C51.3389 3.00647 51.2806 3.04183 51.2352 3.1361C50.9954 3.61338 49.848 3.55446 48.9988 3.01826L48.7524 2.86505L48.4996 3.07718C48.2274 3.30109 47.8967 3.41304 47.5208 3.41304C47.1513 3.41304 46.5419 3.24806 46.1983 3.05361C45.9001 2.88862 45.7057 2.86505 45.7057 2.99469C45.7057 3.10075 45.1547 3.35412 44.85 3.38947C44.487 3.43661 43.91 3.2893 43.6442 3.08896L43.4498 2.94166L43.1321 3.11843C42.4255 3.51911 41.4791 3.46018 40.6429 2.96522C40.4808 2.87095 40.4743 2.87095 40.3058 3.02415C40.04 3.26573 39.7353 3.35412 39.2037 3.35412C38.6787 3.35412 38.4064 3.2893 38.0499 3.07718L37.81 2.93576L37.5248 3.11843C36.9478 3.48964 35.8718 3.49554 35.0939 3.1361C34.7892 3.00058 34.7244 2.98879 34.6984 3.0595C34.6336 3.23627 34.2252 3.525 33.9011 3.61928C33.6483 3.69588 33.4214 3.71355 32.9482 3.69588C32.1962 3.66052 31.7035 3.50732 31.2757 3.17146L30.9905 2.94755L30.6858 3.11843C30.3033 3.33644 30.0246 3.41304 29.5643 3.41304C29.0911 3.40715 28.7021 3.32466 28.2678 3.12432L27.9048 2.95344L27.6974 3.17735C27.4121 3.48964 26.9778 3.61928 26.2258 3.61928C25.4026 3.61928 24.9229 3.46018 24.2098 2.97112C24.1514 2.93576 24.0801 2.95344 23.9764 3.04183C23.7366 3.23627 23.3282 3.40126 22.8809 3.47786C22.3688 3.56035 21.8826 3.48375 21.364 3.23627L21.0139 3.0654L20.8778 3.26573C20.7287 3.48375 20.4759 3.60749 20.0027 3.70766C19.3933 3.83729 18.3561 3.63695 17.857 3.30109L17.6106 3.13021L17.3837 3.2952C17.1439 3.46607 16.6707 3.61338 16.1456 3.67231C15.6594 3.73123 14.9982 3.61928 14.4666 3.37769C14.0323 3.18324 13.9804 3.17146 13.9286 3.26573C13.8897 3.31877 13.7147 3.43072 13.5267 3.50732C12.9238 3.76069 12.0162 3.6782 11.4976 3.31877L11.2772 3.16556L11.0568 3.34823C10.7781 3.56624 10.2984 3.70766 9.68904 3.74891C9.11858 3.79015 8.64536 3.70177 8.12028 3.46018L7.71836 3.27752L7.49148 3.48964C7.19976 3.76069 6.89509 3.84319 6.25332 3.81962C5.84493 3.80194 5.66342 3.76069 5.37171 3.62517C5.16427 3.53089 4.95035 3.40715 4.892 3.34234C4.73642 3.19503 4.5614 3.20681 4.51602 3.3718C4.45768 3.58392 3.97149 4.05531 3.56958 4.28511C3.3751 4.39707 3.20656 4.49724 3.19359 4.50313C3.18063 4.51491 3.23249 4.60919 3.3038 4.71525C3.45289 4.93916 3.48531 5.43412 3.36862 5.66982C3.31028 5.79356 3.32324 5.85248 3.47234 6.05871C3.78998 6.49474 3.77702 7.15469 3.43345 7.50234L3.23897 7.70268L3.40752 7.92659C3.62792 8.2271 3.6344 8.69849 3.414 9.09917L3.25194 9.382L3.44641 9.59412C3.82888 10.0302 3.84184 10.7255 3.47234 11.1202L3.31676 11.2852L3.51124 11.6329C3.66682 11.9157 3.69923 12.0453 3.69923 12.3989C3.69923 12.7465 3.6733 12.8585 3.55013 13.0235L3.40103 13.2238L3.58254 13.4831C3.8937 13.9368 3.90018 14.5849 3.59551 14.9974L3.43345 15.2154L3.62144 15.3745C3.73164 15.4629 3.86777 15.622 3.9326 15.734C4.09466 16.005 4.09466 16.5825 3.9326 16.824C3.82239 16.9949 3.81591 17.0126 3.92611 17.2012C4.05576 17.431 4.12707 18.032 4.06225 18.3443C4.03632 18.4621 3.92611 18.6507 3.82239 18.7626L3.62144 18.963L3.80943 19.181C3.96501 19.3695 3.99094 19.4638 4.01039 19.8468C4.02983 20.2004 4.0039 20.3418 3.90667 20.5185L3.77702 20.7425L3.99094 21.0312C4.34099 21.5026 4.43175 22.0859 4.22431 22.4689L4.09466 22.6869L4.28913 23.0523C4.56788 23.6002 4.5225 24.2248 4.17893 24.5725C4.08169 24.6668 4.08818 24.7139 4.24376 25.0616C4.52898 25.6979 4.44471 26.5464 4.06873 26.9118L3.9326 27.0473L4.10762 27.3301C4.31506 27.6719 4.34099 28.1374 4.17893 28.5145C4.07521 28.7561 4.07521 28.7561 4.23727 28.9152C4.52898 29.1921 4.69105 29.6105 4.69753 30.1113C4.70401 30.5002 4.67808 30.6063 4.49657 30.9186L4.29562 31.278L4.45768 31.5608C4.67808 31.9497 4.64567 32.5743 4.38637 33.0457L4.21134 33.3639L4.37341 33.5171C4.84014 33.959 4.95035 34.8252 4.61974 35.4262L4.43175 35.7621L4.60029 35.9742C4.74939 36.1686 4.76884 36.2452 4.76884 36.699C4.76884 37.1291 4.74291 37.2528 4.60029 37.518L4.43175 37.8303L4.61326 37.9422C4.71049 38.0071 4.85311 38.1838 4.9309 38.3252C5.13834 38.7082 5.09944 39.3564 4.85311 39.6923L4.68456 39.928L4.8207 40.1283C5.03462 40.4347 5.02165 41.2537 4.78828 41.7546C4.64567 42.0728 4.6327 42.1317 4.71698 42.1965C4.95035 42.3674 5.08648 42.7445 5.11241 43.2807C5.13834 43.7403 5.11889 43.8523 4.98924 44.1292C4.87904 44.3649 4.85959 44.4533 4.91793 44.471C4.96331 44.4828 5.15778 44.5888 5.35226 44.7126C5.97458 45.0897 6.43483 45.6966 6.65524 46.4154L6.76544 46.769L6.99233 46.6276C7.11549 46.551 7.27107 46.4862 7.3359 46.4862C7.40072 46.4862 7.47203 46.4626 7.49148 46.4272C7.5563 46.3388 8.40551 46.3565 8.6648 46.4567C8.79445 46.5038 9.00189 46.6217 9.13154 46.716L9.37139 46.8868L9.61125 46.6983C9.95482 46.4272 10.5642 46.2505 11.1606 46.2505C11.7569 46.2505 12.2042 46.3683 12.6386 46.6276L12.9627 46.8279L13.1312 46.7101C13.7471 46.2681 14.713 46.2681 15.3353 46.6983L15.5686 46.8574L15.7113 46.7395C16.003 46.492 16.2947 46.4037 16.8975 46.3801C17.5912 46.3506 17.9736 46.439 18.4728 46.7513L18.7904 46.9517L18.9395 46.7985C19.2183 46.5333 19.5683 46.4096 20.1518 46.3801C20.6509 46.3565 20.7157 46.3683 21.0917 46.5333C21.3186 46.6394 21.5584 46.7749 21.6233 46.8397C21.74 46.9517 21.74 46.9517 21.9928 46.7749C22.7383 46.2328 23.931 46.2269 24.7673 46.7513L25.0136 46.9045L25.2535 46.7572C25.6035 46.5392 25.9471 46.4744 26.5889 46.4979C27.0815 46.5156 27.2047 46.5392 27.6066 46.7277C28.0085 46.9163 28.0798 46.934 28.1511 46.8574C28.3391 46.6511 28.8772 46.4685 29.3893 46.439C29.9338 46.4096 30.2903 46.492 30.7441 46.769L30.984 46.9104L31.1979 46.7631C31.522 46.5451 31.7943 46.4862 32.4555 46.4862C33.013 46.4862 33.0843 46.4979 33.4927 46.6924L33.9335 46.8986L34.0956 46.7572C34.3938 46.5038 34.6919 46.4096 35.243 46.3801C35.7162 46.3565 35.8134 46.3742 36.1505 46.5097C36.3644 46.5981 36.5978 46.7219 36.6756 46.7926L36.8182 46.9163L37.0192 46.7631C37.2849 46.5569 37.5961 46.4862 38.2249 46.4862C38.8472 46.4862 39.301 46.5981 39.677 46.8456L39.9557 47.0283L40.2993 46.8692C40.6234 46.716 40.6882 46.7101 41.343 46.7336C41.9718 46.7513 42.082 46.7749 42.445 46.9399C42.808 47.1107 42.8534 47.1166 42.9312 47.0341C43.1127 46.8338 43.5146 46.7219 44.0915 46.7219C44.5907 46.7219 44.6685 46.7395 44.9407 46.8927C45.1028 46.987 45.2584 47.0931 45.2778 47.1284C45.3362 47.2109 45.3102 47.2168 45.6084 47.0754ZM8.72315 46.987C8.3342 46.6924 7.72485 46.6747 7.28404 46.934C6.99881 47.099 7.12198 47.1343 8.02952 47.1343L8.91762 47.1284L8.72315 46.987ZM56.5314 42.5029C56.486 42.332 56.4795 42.5501 56.499 43.3043C56.5573 45.1368 56.5638 45.1781 56.5768 43.9466C56.5897 43.263 56.5703 42.6326 56.5314 42.5029ZM55.8183 44.3413C55.8183 43.7757 55.7989 43.6637 55.7146 43.6343C55.4229 43.5341 55.0664 44.029 55.1247 44.4533C55.1636 44.7126 55.4618 45.0131 55.6887 45.0131C55.8119 45.0131 55.8183 44.9718 55.8183 44.3413ZM4.58733 43.9112C4.72346 43.6107 4.69753 43.0745 4.52898 42.774C4.29562 42.3674 4.21783 42.3969 4.21783 42.9095C4.21783 43.1511 4.23727 43.5459 4.25672 43.7934C4.29562 44.1881 4.31506 44.2353 4.39934 44.1764C4.45119 44.1351 4.53547 44.0173 4.58733 43.9112ZM55.773 41.7899C55.7535 41.0181 55.7276 40.3758 55.7146 40.364C55.7017 40.3522 55.559 40.4406 55.4035 40.5584C54.6256 41.1359 54.6515 42.6031 55.4488 43.0391C55.5979 43.1216 55.7405 43.1864 55.7665 43.1864C55.7924 43.1864 55.7989 42.556 55.773 41.7899ZM4.35396 41.6426C4.52898 41.3303 4.58733 40.694 4.46416 40.476C4.4123 40.3935 4.30858 40.3169 4.22431 40.311C4.06873 40.2874 4.06873 40.2933 4.10762 40.6586C4.13355 40.859 4.153 41.2184 4.153 41.4541C4.153 41.6957 4.16597 41.8901 4.18541 41.8901C4.19838 41.8901 4.27617 41.7782 4.35396 41.6426ZM55.6887 38.832C55.6887 38.284 55.6692 37.7949 55.6498 37.7419C55.6239 37.683 55.5331 37.6476 55.397 37.6476C55.0728 37.6476 54.9043 37.901 54.8589 38.4195C54.8395 38.72 54.8589 38.8968 54.9432 39.0971C55.0534 39.3623 55.4877 39.8278 55.6239 39.8278C55.6628 39.8278 55.6887 39.4566 55.6887 38.832ZM4.33451 39.6392C4.60677 39.3682 4.68456 38.9322 4.51602 38.5668C4.43175 38.3842 4.19838 38.1779 4.07521 38.1779C4.01039 38.1779 4.01039 39.0264 4.06225 39.4625C4.08818 39.6275 4.12707 39.7689 4.153 39.7689C4.17245 39.7689 4.25672 39.7099 4.33451 39.6392ZM4.28913 37.0996C4.3734 36.8168 4.33451 36.3926 4.21783 36.2629C4.17245 36.2158 4.07521 36.1745 4.0039 36.1745C3.88074 36.1745 3.88074 36.1981 3.91315 36.5752C3.93908 36.7932 3.95853 37.1173 3.95853 37.2941L3.96501 37.6182L4.08818 37.4826C4.15948 37.406 4.25024 37.2293 4.28913 37.0996ZM55.5914 34.8959C55.5461 34.6602 55.4424 34.6484 55.2155 34.8664C54.9302 35.1375 54.7617 35.5617 54.7552 36.0272C54.7487 36.5516 54.9173 36.8698 55.3127 37.082L55.5914 37.2352L55.6109 36.1569C55.6239 35.5676 55.6109 34.9961 55.5914 34.8959ZM4.18541 35.2553C4.34748 34.9371 4.37989 34.5188 4.25672 34.1947C4.153 33.9178 3.99094 33.6997 3.88074 33.6997C3.82239 33.6997 3.80943 35.1905 3.86777 35.3909C3.91963 35.5617 4.05576 35.5087 4.18541 35.2553ZM55.559 33.3639C55.559 32.2561 55.4942 32.1442 55.196 32.7216C55.0275 33.0457 54.9886 33.4994 55.1117 33.7174C55.209 33.8824 55.4359 34.1122 55.5072 34.1122C55.5331 34.1122 55.559 33.7763 55.559 33.3639ZM3.97797 32.8807C4.23079 32.4918 4.19838 31.826 3.91963 31.661C3.83536 31.608 3.74461 31.5785 3.72516 31.5962C3.6733 31.6433 3.77054 33.0516 3.82239 33.0516C3.84832 33.0516 3.91315 32.975 3.97797 32.8807ZM55.4683 30.5356C55.4488 29.964 55.4164 29.4808 55.397 29.469C55.3386 29.416 55.1766 29.5869 55.0404 29.8403C54.8784 30.1525 54.8524 30.7536 55.0015 31.0659C55.0923 31.2721 55.371 31.5785 55.4683 31.5785C55.4942 31.5785 55.4942 31.1071 55.4683 30.5356ZM3.94556 30.9186C4.01687 30.842 4.10762 30.7064 4.14652 30.618C4.23727 30.4 4.23727 29.8815 4.14652 29.6281C4.06225 29.3983 3.78998 29.0448 3.69275 29.0448C3.66033 29.0448 3.6344 29.304 3.6344 29.6517C3.6344 30.3529 3.69923 31.0482 3.76405 31.0482C3.7835 31.0482 3.86777 30.9893 3.94556 30.9186ZM55.397 27.3478C55.2997 27.2594 55.2025 27.501 55.1831 27.8899C55.1636 28.2257 55.183 28.3613 55.2738 28.5204L55.397 28.7207L55.4164 28.049C55.4229 27.6837 55.4164 27.3655 55.397 27.3478ZM3.75109 28.3672C3.87425 28.1315 3.84832 27.7249 3.70571 27.5658C3.6344 27.4892 3.5631 27.4362 3.55013 27.4538C3.49827 27.501 3.58254 28.5145 3.6344 28.5145C3.66033 28.5145 3.71219 28.4497 3.75109 28.3672ZM3.86777 26.3579C4.07521 25.857 3.88722 25.0498 3.54365 24.9908C3.42696 24.9673 3.40752 25.2383 3.48531 26.2341C3.5242 26.7821 3.53068 26.8057 3.64089 26.7114C3.70571 26.6584 3.80943 26.4993 3.86777 26.3579ZM55.3581 25.8217C55.3581 25.4033 55.3321 24.9378 55.3062 24.7728L55.2608 24.4782L54.9691 24.7434C54.444 25.2324 54.3727 25.9042 54.8006 26.3284C54.9432 26.4639 55.1312 26.5582 55.2868 26.5641C55.3451 26.57 55.3646 26.3873 55.3581 25.8217ZM3.75109 24.3604C4.13355 24.0657 4.10762 23.4706 3.69275 23.064C3.51124 22.8873 3.43993 22.7635 3.43993 22.628C3.43993 22.4866 3.46586 22.4453 3.5631 22.4453C3.77702 22.4453 3.84832 22.298 3.81591 21.8915C3.79647 21.5968 3.75109 21.4731 3.61496 21.3022C3.51124 21.1844 3.40103 21.0901 3.36214 21.0901C3.29731 21.0901 3.34269 23.8065 3.414 24.2897C3.45938 24.5489 3.49827 24.5548 3.75109 24.3604ZM55.2997 23.6415C55.2997 22.9874 55.2155 21.974 55.1636 21.974C55.1312 21.974 55.034 22.1095 54.9367 22.2745C54.6515 22.793 54.7163 23.4883 55.0923 23.8772C55.2544 24.0422 55.2997 23.995 55.2997 23.6415ZM55.1895 20.2475C55.1442 18.9512 55.0923 18.8392 54.8135 19.399C54.6061 19.7997 54.5867 20.5716 54.7747 20.9546C54.8978 21.1903 55.1571 21.479 55.209 21.426C55.2219 21.4142 55.2155 20.8839 55.1895 20.2475ZM3.53717 19.947C3.53717 19.6583 3.50475 19.5404 3.414 19.4461C3.34269 19.3754 3.2649 19.3224 3.23249 19.3224C3.16766 19.3224 3.16766 19.617 3.22601 20.165L3.2649 20.5657L3.40103 20.4419C3.51124 20.3477 3.53717 20.2475 3.53717 19.947ZM3.61496 18.0732C3.6344 17.8316 3.60847 17.702 3.49179 17.4958C3.40752 17.3485 3.29083 17.2247 3.23249 17.2129C3.12877 17.1953 3.1158 17.2542 3.1158 17.867C3.1158 18.7449 3.13525 18.798 3.39455 18.5682C3.55013 18.4209 3.59551 18.3266 3.61496 18.0732ZM55.1117 17.2247C55.1053 16.5825 55.0729 16.0286 55.034 15.9991C54.9497 15.9166 54.6774 16.1641 54.5218 16.4646C54.3468 16.7887 54.282 17.4074 54.3922 17.702C54.4829 17.9436 54.9562 18.4562 55.0599 18.4209C55.0988 18.4091 55.1182 17.9731 55.1117 17.2247ZM3.43993 16.6414C3.5631 16.5235 3.58254 16.4528 3.55661 16.1995C3.53068 15.9991 3.47234 15.8518 3.3751 15.7575C3.10284 15.4924 3.05098 15.5572 3.05098 16.1582C3.05098 16.4646 3.07043 16.7298 3.09636 16.7474C3.17415 16.824 3.29083 16.7887 3.43993 16.6414ZM55.008 13.6245C54.9562 12.9174 54.8784 12.8585 54.6256 13.324C54.3274 13.8661 54.4311 14.8324 54.833 15.2626L55.008 15.457L55.0275 14.8383C55.0404 14.5025 55.0275 13.9545 55.008 13.6245ZM3.31028 14.5437C3.38807 14.2903 3.31676 13.925 3.1547 13.6952C2.92133 13.377 2.88244 13.5361 2.96671 14.4789C3.0056 14.9444 3.01209 14.9621 3.12877 14.8678C3.19359 14.8089 3.27787 14.6674 3.31028 14.5437ZM3.1158 12.829C3.29083 12.6523 3.29083 12.1985 3.10932 11.8568C3.03802 11.7154 2.94726 11.6034 2.91485 11.6034C2.85002 11.6034 2.83706 12.6169 2.8954 12.829C2.94726 12.9881 2.94726 12.9881 3.1158 12.829ZM54.9367 11.1085C54.9108 10.4721 54.8719 9.95356 54.846 9.95356C54.7747 9.95356 54.6126 10.1362 54.4829 10.366C54.3403 10.6194 54.3209 11.35 54.4505 11.68C54.5348 11.9039 54.8978 12.34 54.9562 12.2869C54.9756 12.2751 54.9626 11.7448 54.9367 11.1085ZM3.10932 10.861C3.36862 10.5664 3.24545 9.87696 2.91485 9.71197C2.84354 9.67662 2.77223 9.65894 2.76575 9.67073C2.75927 9.68251 2.76575 9.98891 2.77872 10.3542C2.81113 11.0731 2.86299 11.1497 3.10932 10.861ZM54.8719 8.35084C54.846 7.75571 54.82 7.26075 54.8071 7.24897C54.7941 7.23718 54.7422 7.26075 54.6904 7.29611C54.4052 7.51412 54.2755 8.63367 54.4959 9.02257C54.6191 9.25237 54.7811 9.42325 54.8589 9.42325C54.8913 9.42325 54.8978 8.96364 54.8719 8.35084ZM2.98616 8.94007C3.05746 8.83401 3.1158 8.65135 3.1158 8.5335C3.1158 8.29781 2.90837 8.00908 2.7463 8.00908C2.66203 8.00908 2.64907 8.06211 2.68796 8.32138C2.70741 8.48636 2.72686 8.73973 2.72686 8.88115C2.72686 9.17577 2.81113 9.19934 2.98616 8.94007ZM3.0056 7.302C3.21952 7.07809 3.27138 6.84239 3.18063 6.54188C3.10932 6.3003 2.91485 6.12353 2.71389 6.12353C2.61017 6.12353 2.59721 6.18245 2.59721 6.61848C2.59721 7.48466 2.69444 7.64375 3.0056 7.302ZM54.8265 5.87605C54.8006 5.605 54.7811 5.222 54.7811 5.02166C54.7811 4.65633 54.7811 4.65044 54.5996 4.65044C54.282 4.65044 54.0032 5.02755 54.0032 5.45769C54.0032 5.75231 54.1783 6.04693 54.4505 6.21781C54.8395 6.45939 54.8719 6.42993 54.8265 5.87605ZM2.83706 5.58143C3.05098 5.39877 3.03802 5.0688 2.81761 4.82721C2.72037 4.72704 2.61665 4.65633 2.57776 4.66812C2.53886 4.6799 2.51942 4.86846 2.5259 5.15129C2.54535 5.76999 2.57128 5.80534 2.83706 5.58143ZM6.95343 3.34823C7.02474 3.31287 7.12198 3.19503 7.17383 3.08896C7.35534 2.69418 7.38127 2.70596 6.16905 2.70596C5.5597 2.70596 5.05406 2.72953 5.03462 2.7531C4.95683 2.87095 5.58563 3.26574 6.00051 3.36001C6.2987 3.42483 6.80433 3.41894 6.95343 3.34823ZM10.3762 3.17735C10.6095 3.07129 10.83 2.85916 10.83 2.7531C10.83 2.72364 10.1882 2.70596 9.40381 2.70596C8.61943 2.70596 7.97766 2.72953 7.97766 2.7531C7.97766 2.85327 8.23048 3.01236 8.60646 3.15378C9.1121 3.34234 9.99371 3.35412 10.3762 3.17735ZM20.2944 3.1361C20.3981 3.04183 20.5083 2.88273 20.5277 2.78256L20.5731 2.58811H19.2312C17.7532 2.58811 17.6819 2.61168 18.1292 2.91809C18.4858 3.17146 18.959 3.2893 19.5618 3.2952C20.0545 3.2952 20.1129 3.28341 20.2944 3.1361ZM33.8427 3.17735C34.0891 3.06539 34.2252 2.90041 34.3224 2.60579L34.3678 2.47027H32.8444C31.5544 2.47027 31.3146 2.48205 31.3146 2.55276C31.3146 2.65293 31.6193 2.87684 32.0017 3.05361C32.5462 3.31287 33.4279 3.3659 33.8427 3.17735ZM13.2803 3.11843C13.4813 3.00647 13.6369 2.78256 13.572 2.69418C13.5331 2.62936 11.6208 2.63525 11.5819 2.69418C11.5301 2.77667 11.8801 3.04772 12.1589 3.14199C12.5413 3.27163 13.0275 3.25984 13.2803 3.11843ZM16.8262 3.08896C16.9689 3.02415 17.118 2.9063 17.1633 2.82381L17.2411 2.6765L15.8085 2.65882C15.0241 2.65293 14.3629 2.65882 14.3435 2.6765C14.2916 2.71775 14.4666 2.88273 14.6676 2.97701C15.251 3.25395 16.3401 3.30698 16.8262 3.08896ZM26.9713 3.08307C27.2112 2.99469 27.4251 2.76488 27.4251 2.58811C27.4251 2.54687 26.9519 2.52919 25.9989 2.52919C25.1433 2.52919 24.5728 2.55276 24.5728 2.58222C24.5728 2.68239 25.0266 2.95933 25.3701 3.0654C25.8045 3.20681 26.6148 3.2127 26.9713 3.08307ZM23.0624 2.97112C23.406 2.87684 23.756 2.67061 23.6977 2.58811C23.6782 2.56454 23.4708 2.54687 23.2244 2.55865C22.9846 2.57044 22.4465 2.58222 22.0187 2.58222C21.3316 2.58811 21.2603 2.5999 21.338 2.68239C21.6362 3.01236 22.4206 3.142 23.0624 2.97112ZM30.0375 2.91809C30.2903 2.83559 30.5367 2.67061 30.5367 2.57633C30.5367 2.55276 30.0246 2.52919 29.3958 2.52919C28.6503 2.52919 28.2743 2.54687 28.3002 2.58811C28.3715 2.69418 28.741 2.84738 29.1105 2.91809C29.5773 3.01236 29.7393 3.01236 30.0375 2.91809ZM36.7987 2.93576C37.0905 2.86505 37.5313 2.54687 37.4275 2.47616C37.4016 2.45259 36.8571 2.4467 36.2218 2.45848C34.9966 2.48205 34.9123 2.50562 35.3337 2.72953C35.7875 2.97112 36.3126 3.04772 36.7987 2.93576ZM42.6395 2.8297C42.8728 2.72953 43.0479 2.56454 43.0479 2.44081C43.0479 2.42313 42.5746 2.41724 41.9977 2.42313C41.343 2.43491 40.941 2.46437 40.9475 2.49973C40.9605 2.65293 41.7514 2.92987 42.1727 2.93576C42.2829 2.93576 42.4904 2.88862 42.6395 2.8297ZM48.0329 2.78256C48.1366 2.68828 48.2403 2.55865 48.2662 2.48205L48.3116 2.34653L47.2809 2.3642C46.4382 2.38188 46.2567 2.39956 46.2567 2.46437C46.2567 2.65293 46.9957 2.93576 47.5013 2.94166C47.7865 2.94166 47.8773 2.91219 48.0329 2.78256ZM50.762 2.82381C50.8074 2.7531 50.8074 2.63525 50.775 2.51741L50.7231 2.32296L50.0424 2.31707C49.6729 2.31117 49.297 2.32885 49.2062 2.35242L49.0506 2.38777L49.2257 2.53508C49.5563 2.80024 49.9258 2.93576 50.3212 2.94166C50.6259 2.94166 50.7037 2.91809 50.762 2.82381ZM39.8974 2.70007C39.9881 2.5999 40.0659 2.49384 40.0659 2.46437C40.0659 2.38777 38.1925 2.42313 38.1666 2.49384C38.1601 2.52919 38.3092 2.62936 38.5036 2.71775C38.7824 2.85327 38.9315 2.88273 39.288 2.88273C39.7029 2.88273 39.7418 2.87095 39.8974 2.70007ZM45.1158 2.80024C45.2908 2.71775 45.4723 2.45259 45.401 2.38777C45.3751 2.3701 44.9991 2.35242 44.5583 2.35242C43.91 2.35242 43.7609 2.3701 43.7609 2.43491C43.7609 2.52919 44.0397 2.72953 44.286 2.81792C44.5194 2.90041 44.9148 2.89452 45.1158 2.80024ZM51.7992 2.49973C51.7992 2.38188 51.7668 2.35242 51.6371 2.35242C51.4362 2.35242 51.4297 2.43491 51.6177 2.55276C51.8057 2.67061 51.7992 2.6765 51.7992 2.49973Z" fill="black"/>
<path d="M49.2062 45.8087C47.968 45.5848 47.2161 45.0191 47.3522 44.4122C47.4559 43.9349 47.8319 43.658 48.3829 43.658C48.6876 43.658 49.9517 44.0056 50.762 44.3061C51.3973 44.5477 52.3178 45.1841 52.3178 45.3903C52.3178 45.5199 51.8705 45.7144 51.3519 45.8146C50.8268 45.9147 49.7702 45.9147 49.2062 45.8087Z" fill="black"/>
<path d="M52.5511 45.2958C52.4409 45.1544 52.4149 44.9069 52.4992 44.8068C52.5705 44.7125 52.8233 44.6005 52.953 44.6005C53.0113 44.6005 53.1345 44.6418 53.2123 44.6948C53.4003 44.8126 53.4067 45.1426 53.2252 45.3076C53.0437 45.4726 52.6807 45.4667 52.5511 45.2958Z" fill="black"/>
<path d="M7.15426 44.8368C6.95978 44.6777 6.92089 44.5127 7.01813 44.3241C7.12185 44.1297 7.54321 43.9706 7.80251 44.0354C8.01643 44.0825 8.19145 44.3654 8.13311 44.5716C8.03587 44.9192 7.43949 45.0842 7.15426 44.8368Z" fill="black"/>
<path d="M10.5059 44.7835C10.3827 44.7599 9.88359 44.6656 9.40389 44.5713C8.48986 44.4005 8.36669 44.3592 8.36669 44.1942C8.36669 44.0941 8.71675 43.7582 9.01494 43.5755C9.17052 43.4813 9.16404 43.4754 8.68434 43.5166C8.10091 43.5637 8.05554 43.5166 8.21112 43.0806C8.61951 41.9728 9.50761 40.7354 10.1753 40.3465C10.4152 40.211 10.5383 40.1815 10.8689 40.1815C11.3422 40.1815 11.5561 40.3053 11.7441 40.6765C12.0941 41.3836 11.5885 42.1908 10.4022 42.8213C9.94194 43.0629 9.61133 43.3222 9.89008 43.222C11.4588 42.6386 12.7553 42.6269 13.3712 43.1866C13.5916 43.3811 13.6175 43.44 13.6175 43.6993C13.6175 44.1117 13.4036 44.3651 12.8591 44.6126C12.4377 44.8011 12.3923 44.807 11.5755 44.8188C11.1153 44.8247 10.6291 44.807 10.5059 44.7835Z" fill="black"/>
<path d="M51.7343 44.5238C50.7425 44.1821 49.5627 43.4986 49.0246 42.9624C48.13 42.0667 48.2921 40.8882 49.3163 40.8882C50.0359 40.8882 51.3842 41.8841 51.9936 42.874C52.2983 43.363 52.5187 44.0289 52.4992 44.3824C52.4862 44.6004 52.4538 44.6947 52.3825 44.7006C52.3307 44.7124 52.039 44.6299 51.7343 44.5238Z" fill="black"/>
<path d="M53.0502 44.4353C52.8039 44.229 52.7002 44.0464 52.4798 43.4218C52.3177 42.9799 52.2983 42.8267 52.2918 42.1255C52.2853 41.3948 52.2983 41.3123 52.4344 41.0884C52.6354 40.7761 52.8752 40.6524 53.2707 40.6524C53.517 40.6524 53.6207 40.6819 53.7309 40.7879C53.9578 41.0059 54.1199 41.4243 54.2041 41.9841C54.2819 42.5792 54.2041 43.1566 53.9448 43.7812C53.7828 44.1701 53.4586 44.6003 53.329 44.6003C53.2771 44.6003 53.154 44.5296 53.0502 44.4353Z" fill="black"/>
<path d="M23.6391 44.483C23.0103 44.3062 22.6732 43.4931 22.6668 42.1555C22.6668 40.9653 22.9844 39.5806 23.6067 38.0662C24.5143 35.8625 25.5515 34.2362 27.8787 31.3784L28.5593 30.5417L28.5075 28.1023C28.4491 25.2091 28.488 21.0314 28.5917 20.124C28.6306 19.7764 28.6501 19.4758 28.6306 19.4582C28.5658 19.3992 28.2871 19.6173 26.2581 21.2907C25.7135 21.7385 25.0977 22.2276 24.8838 22.3749C24.6763 22.5222 24.5078 22.6577 24.5078 22.6754C24.5078 22.699 24.3522 24.1603 24.1577 25.9221C23.7169 29.8935 23.4706 33.37 23.4706 35.6268C23.4706 36.2632 23.4122 36.4694 23.2891 36.2514C23.1594 36.0275 23.0427 34.5426 22.952 32.0207C22.8807 29.9937 22.9585 26.4229 23.1141 24.6611C23.1659 24.0778 23.1983 23.5887 23.1789 23.5769C23.1529 23.5475 22.4075 24.1426 21.7398 24.72C21.5842 24.8556 21.461 25.0147 21.461 25.0854C21.461 25.2386 21.1434 26.4465 20.8063 27.6014C20.1905 29.6696 18.8097 33.4997 16.7936 38.738C16.4306 39.6807 15.9055 41.036 15.6268 41.7548C15.1147 43.0983 14.9591 43.3988 14.8359 43.3281C14.7322 43.2692 14.81 42.6623 15.0693 41.5368C15.5749 39.339 15.9963 37.8659 17.2215 33.9828C18.2781 30.6242 19.3153 26.9591 19.231 26.8766C19.1533 26.8118 17.3446 28.4912 13.3385 32.3624C12.4244 33.2463 12.2494 33.3465 12.0614 33.1402C11.8929 32.9517 12.0485 32.5981 12.5735 32.003C13.5978 30.8422 17.2539 27.3893 18.8745 26.0635L19.6913 25.3918L19.8274 24.7259C20.2812 22.5458 21.2341 16.8243 21.3962 15.2923C21.474 14.5439 21.4416 14.0902 21.299 14.0431C21.1563 13.9901 20.735 14.2258 20.372 14.5616C19.0236 15.7813 17.7206 18.0145 17.6623 19.193C17.6493 19.4287 17.6234 19.6467 17.6039 19.6762C17.5391 19.7764 17.3187 19.741 17.1761 19.6114C17.0465 19.4935 17.04 19.4405 17.0659 18.8866C17.0918 18.4506 17.1437 18.1677 17.2733 17.8201C17.8373 16.3175 18.9134 14.8798 20.158 13.9783C20.8582 13.4715 21.0786 13.3714 21.4999 13.3714C21.8694 13.3714 22.0898 13.501 22.3621 13.8899C23.1205 14.9682 23.2178 16.9539 22.6538 19.9944C22.4075 21.326 21.9861 23.2116 21.8694 23.4827C21.824 23.5946 22.3102 23.2352 23.0298 22.6283C23.3085 22.3926 23.4058 22.2688 23.4058 22.151C23.4058 21.7091 24.4494 15.8344 25.0005 13.2064C25.37 11.421 25.7784 9.97148 26.1997 8.90496C26.5109 8.13307 26.7118 7.89148 27.0554 7.89148C27.4055 7.89148 27.4508 7.98576 27.4055 8.67516C27.3795 9.13477 27.2758 9.61205 26.9711 10.7198C26.1867 13.5717 25.7978 15.198 25.357 17.496C25.1884 18.3858 24.7671 20.943 24.7671 21.0962C24.7671 21.1552 25.2662 20.7957 25.9339 20.2654C26.4525 19.853 27.6259 18.9632 28.0731 18.645C28.4815 18.3504 28.8316 18.0853 30.0503 17.113C30.5754 16.6947 31.1912 16.2174 31.4116 16.0524C31.7941 15.7754 32.5396 15.1862 33.4342 14.4615C33.661 14.2847 33.9398 14.0902 34.0694 14.0372C34.2898 13.9429 34.3028 13.9429 34.4778 14.0608C34.588 14.1374 34.6593 14.2434 34.6723 14.3672C34.6982 14.6147 34.4649 14.8621 33.499 15.581C33.0776 15.8933 32.2154 16.5768 31.5866 17.0953C30.9578 17.6198 30.2318 18.2031 29.979 18.3917L29.5123 18.7393L29.4669 20.2536C29.3956 22.3572 29.5187 29.1629 29.6225 29.1629C29.6419 29.1629 29.7845 29.0038 29.9401 28.8152C30.0892 28.6208 30.5235 28.114 30.8995 27.6839C31.2755 27.2538 31.5996 26.8708 31.6126 26.8354C31.632 26.8 31.457 26.6233 31.2236 26.4347C30.2059 25.6157 29.6225 24.5551 29.5252 23.3412C29.4993 23.0938 29.5123 22.7932 29.5447 22.6813L29.603 22.4751L30.1735 22.4456L30.7439 22.4161L30.906 21.9212C31.1264 21.2082 31.47 20.6543 31.9626 20.2006C32.2997 19.8942 32.4488 19.7999 32.6887 19.7469C33.1424 19.6408 33.4666 19.6585 33.9398 19.8176C34.426 19.9767 34.6853 20.1653 34.6853 20.3538C34.6853 20.5424 34.5556 20.619 34.2445 20.619C33.8685 20.619 33.4471 20.8134 33.123 21.1316C32.6952 21.5559 32.8313 21.6148 33.5703 21.326C33.8231 21.2318 34.0694 21.1493 34.1148 21.1493C34.1602 21.1493 34.3741 21.0845 34.588 21.002C34.802 20.9254 35.0418 20.8547 35.1261 20.8547C35.3076 20.8547 35.3076 20.8429 35.1066 20.5365C35.0224 20.4009 34.8733 20.0238 34.7825 19.7057C34.5751 18.9927 34.4649 18.81 33.7453 18.0558C33.0711 17.3428 32.7989 16.9421 32.8183 16.7005C32.8378 16.5473 32.8637 16.5238 33.0517 16.5061C33.2202 16.4884 33.324 16.5356 33.6351 16.7771C33.8361 16.9362 34.238 17.2191 34.5232 17.4017C34.8084 17.5844 35.1261 17.7906 35.2298 17.8613L35.4178 17.991L35.3724 17.8496C35.1844 17.3075 35.0677 16.8184 35.0353 16.4059C34.9835 15.8403 35.0613 14.0136 35.139 13.9017C35.1844 13.8369 35.2557 13.831 35.4437 13.8781C35.6836 13.9311 35.6901 13.937 35.7354 14.2552C35.7614 14.4379 35.8262 14.7148 35.8845 14.8739C36.0985 15.4632 36.9606 16.8302 37.557 17.549C37.8358 17.879 37.9071 17.8672 37.92 17.496C37.9395 17.0894 38.497 16.3352 39.048 15.9758C39.4175 15.7342 39.9685 15.1509 40.2148 14.7384C40.3056 14.5852 40.4676 14.1904 40.5714 13.8722C40.7269 13.3655 40.7723 13.283 40.902 13.2653C41.2131 13.2241 41.252 13.336 41.2131 14.1374C41.1807 14.7561 41.0575 15.9581 40.9473 16.7064C40.9214 16.8832 40.9538 16.8655 41.4984 16.3706C41.8095 16.0819 42.1012 15.8462 42.1336 15.8462C42.1661 15.8462 42.2763 15.7813 42.38 15.7047C42.4837 15.6281 42.9115 15.3983 43.3394 15.1921C44.2858 14.7443 44.409 14.6736 44.8757 14.2729C45.3036 13.9076 45.5758 13.8486 45.5758 14.1256C45.5758 14.214 45.4397 14.4968 45.2841 14.7561C44.9276 15.3276 44.6683 15.8285 44.3636 16.512C44.234 16.7948 43.9747 17.2603 43.7802 17.5432C43.5857 17.826 43.4107 18.0735 43.3977 18.097C43.3523 18.1619 44.0978 17.9792 44.4414 17.8437C44.6229 17.773 44.9341 17.608 45.148 17.4724C46.1204 16.8538 46.2306 16.8125 46.3537 17.0246C46.438 17.166 46.3148 17.5196 46.062 17.8555C45.6471 18.3975 44.5516 19.2166 43.6635 19.6467C42.8013 20.071 42.8208 20.0238 43.4301 20.1888C43.7283 20.2654 44.3442 20.454 44.7979 20.6131C45.6212 20.9018 46.5741 21.1493 46.8399 21.1493C46.9177 21.1493 47.1187 21.108 47.2937 21.055C47.5919 20.9607 47.6113 20.9607 47.6956 21.0668C47.7475 21.1257 47.7799 21.2612 47.7669 21.3555C47.7539 21.4969 47.6956 21.5559 47.4557 21.6619C47.0862 21.8269 46.5482 21.9565 45.8416 22.039C45.135 22.1274 43.1903 22.0744 42.5355 21.9506C42.2698 21.8976 42.0364 21.8681 42.0234 21.8858C42.0105 21.8976 42.1531 22.0685 42.3411 22.2629C42.5355 22.4633 42.8273 22.8404 42.9958 23.1055C43.1579 23.3766 43.3912 23.7537 43.5144 23.9423C43.6635 24.1897 43.8385 24.3606 44.1043 24.5256C44.4997 24.7849 44.584 24.9793 44.3442 25.0972C44.2015 25.1679 43.9487 25.1207 43.3588 24.9263C43.1514 24.8556 42.8597 24.8025 42.7041 24.8025C42.2179 24.8025 41.3493 24.6847 40.9473 24.561C40.15 24.3135 39.1906 23.6359 38.6655 22.9406C38.3868 22.5693 38.3479 22.5929 38.296 23.1527C38.2312 23.8244 37.92 24.5374 37.3755 25.2916L37.2588 25.4625L37.5116 25.3623C37.6478 25.3093 37.8358 25.2445 37.933 25.215C38.0237 25.1914 38.3284 25.0206 38.6072 24.8379C38.9832 24.6022 39.1841 24.5079 39.3332 24.5079H39.5471L39.5601 24.9675C39.5795 25.6334 39.5406 26.0576 39.4629 26.146C39.3202 26.311 38.4127 26.5644 37.4403 26.7117L36.9866 26.7824L36.7791 27.3304C36.6689 27.6309 36.5587 27.896 36.5328 27.9137C36.4615 27.9785 35.0807 27.9432 34.6204 27.8666C34.0694 27.7782 33.2591 27.5425 32.76 27.3304C32.5396 27.2361 32.3321 27.1595 32.3062 27.1595C32.2479 27.1654 31.5931 27.9196 30.4457 29.3102L29.616 30.3119L29.6225 31.9028C29.6354 33.5527 29.5058 35.7918 29.3307 37.0292C29.1168 38.5435 28.7797 39.6631 28.2028 40.7414C27.6194 41.8373 27.2564 42.2969 26.2645 43.1926C25.4866 43.8997 25.3181 44.0234 24.8319 44.2355C24.229 44.5007 23.9308 44.5655 23.6391 44.483ZM24.3846 43.5343C25.3051 42.9922 26.1867 41.9787 26.9063 40.6294C27.7685 39.0208 28.2871 37.0999 28.4621 34.8785C28.5464 33.7884 28.5464 31.8734 28.4621 31.8734C28.3778 31.8734 27.2045 33.4172 26.5044 34.4483C24.806 36.9467 23.8077 39.2506 23.4382 41.5074C23.2761 42.515 23.3345 43.4224 23.5808 43.6699C23.7429 43.829 23.9308 43.7995 24.3846 43.5343ZM34.9057 26.1283C35.2168 26.0812 35.6187 25.9928 35.8067 25.9339C36.1373 25.8278 36.1438 25.8219 36.1633 25.5685C36.1762 25.4271 36.1373 25.0677 36.0855 24.7672C36.0271 24.4726 35.9818 24.0896 35.9818 23.9246C35.9818 23.5239 35.8456 23.5239 35.6187 23.9364C35.0418 24.9675 34.3028 25.6451 33.8685 25.545C33.7583 25.5155 33.661 25.5744 33.4277 25.8101C33.2656 25.9751 33.1295 26.1342 33.1295 26.1637C33.1295 26.2462 34.2963 26.2226 34.9057 26.1283ZM37.207 24.5668C37.5311 24.0012 37.6867 23.5475 37.7644 22.8757C37.8163 22.4456 37.745 22.2924 37.4727 22.2394C37.369 22.2158 37.2653 22.1745 37.2458 22.1451C37.1486 22.0096 37.006 22.1274 36.7856 22.534C36.5652 22.9406 36.5457 23.0172 36.5393 23.518C36.5328 24.0778 36.7402 25.2562 36.831 25.1738C36.8569 25.1443 37.0254 24.8732 37.207 24.5668ZM33.0711 24.0955C33.5508 23.1821 33.6157 23.082 34.0241 22.6813C34.2445 22.4633 34.426 22.2629 34.426 22.2453C34.426 22.2276 34.2898 22.2099 34.1213 22.2099C33.9463 22.2099 33.5379 22.1687 33.2008 22.1215C32.8637 22.0685 32.5655 22.0508 32.5461 22.0744C32.4683 22.1451 32.2997 22.6754 32.2284 23.0584C32.1506 23.4591 32.1312 25.0559 32.209 25.1207C32.2997 25.2032 32.8118 24.5963 33.0711 24.0955ZM33.4212 24.8909C33.8425 24.5727 34.2639 24.4843 34.3482 24.6906C34.3936 24.7966 34.4195 24.7849 34.5945 24.5551C34.7047 24.4136 34.9964 23.9835 35.2363 23.5946C35.4761 23.2057 35.7873 22.7461 35.9364 22.5693L36.1957 22.2511L35.716 22.2924C35.1455 22.3454 34.9511 22.4397 34.4584 22.9229C34.1991 23.1821 33.9981 23.4709 33.7453 23.954C33.5444 24.3253 33.3175 24.7377 33.2267 24.8615C33.136 24.9911 33.0776 25.0972 33.1035 25.0972C33.123 25.0972 33.2656 25.0029 33.4212 24.8909ZM42.9245 24.1426C42.8467 24.0365 42.6911 23.7891 42.5809 23.5946C41.9392 22.4456 40.9279 21.6678 39.9815 21.5794L39.6444 21.55L39.2619 21.8858L38.8859 22.2276L38.9832 22.4102C39.3527 23.1055 40.5389 23.9481 41.4335 24.1544C41.6669 24.2074 42.3411 24.284 42.9375 24.3253C43.0541 24.3312 43.0541 24.3194 42.9245 24.1426ZM30.6013 23.2352V22.8522L30.2966 22.8698L29.9855 22.8875L30.0049 23.1232C30.0373 23.5887 30.0568 23.6241 30.342 23.6241H30.6013V23.2352ZM36.3318 21.6914C36.6365 21.6148 36.5976 21.5205 36.1957 21.385L35.8197 21.2553L35.152 21.4026C34.7825 21.4851 34.4325 21.5912 34.3806 21.6325C34.2898 21.6973 34.3028 21.7149 34.4973 21.7503C34.776 21.7974 36.079 21.7621 36.3318 21.6914ZM38.6461 21.6619C39.3138 21.2553 39.3851 20.4422 38.7952 19.9767C38.5294 19.7587 38.1988 19.6939 37.8422 19.794C37.0514 20.0062 36.7532 21.0079 37.3236 21.5264C37.6413 21.8151 38.283 21.8858 38.6461 21.6619ZM45.7768 21.5205C45.8222 21.4792 45.7898 21.4439 45.6601 21.4203C45.5629 21.3968 45.0443 21.2318 44.5062 21.0491C42.7689 20.4658 41.8873 20.3833 40.4741 20.6779C39.9685 20.784 39.8064 20.837 39.8064 20.9077C39.8064 20.9843 39.9426 21.0255 40.4093 21.1021C40.7334 21.1552 41.3946 21.2671 41.8743 21.3555C42.354 21.438 42.9764 21.5264 43.2681 21.5558C43.9358 21.6266 45.6925 21.5971 45.7768 21.5205ZM33.123 20.4422C33.2721 20.3597 33.3888 20.2772 33.3888 20.2536C33.3888 20.2242 33.2591 20.2065 33.1035 20.2065C32.7859 20.2065 32.6887 20.2831 32.3256 20.8606C32.0404 21.3202 32.1247 21.3673 32.5072 20.9607C32.7016 20.7545 32.9804 20.5247 33.123 20.4422ZM36.4355 20.7368C36.4355 20.672 36.4939 20.454 36.5652 20.2595C36.7337 19.8117 36.7273 19.8058 35.8845 19.0457C35.0548 18.3092 34.802 18.2385 35.0937 18.8336C35.1844 19.0221 35.2946 19.3344 35.3335 19.5289C35.4632 20.1122 35.7808 20.5718 36.2087 20.784C36.3966 20.8782 36.4355 20.8723 36.4355 20.7368ZM40.0398 20.2419C40.1824 20.2006 40.5389 20.1181 40.8436 20.0651C41.7577 19.8942 43.1384 19.4523 43.5014 19.2166C43.5922 19.1577 43.8709 18.9809 44.1302 18.8218C44.3831 18.6686 44.6618 18.4741 44.7461 18.3917L44.8952 18.2443L44.7331 18.2797C44.6424 18.2974 44.3701 18.3799 44.1238 18.4683C43.8645 18.5566 43.2421 18.6804 42.6393 18.7688C41.0964 18.9809 40.3704 19.2402 39.8129 19.7587C39.6055 19.9531 39.599 19.9767 39.6768 20.1417C39.7222 20.2419 39.7675 20.3243 39.774 20.3243C39.7805 20.3243 39.9037 20.289 40.0398 20.2419ZM37.6672 19.3285C37.8293 19.2991 37.8941 19.2637 37.8876 19.1871C37.8876 19.1341 37.8811 19.0104 37.8747 18.922C37.8682 18.81 37.6802 18.5449 37.3431 18.1442C36.8569 17.5785 36.1762 16.6122 35.8586 16.0406C35.6382 15.6399 35.5669 15.7106 35.6187 16.2704C35.729 17.4842 36.1244 18.3799 36.8893 19.1636C37.1097 19.3875 37.1875 19.4346 37.3042 19.4051C37.3755 19.3816 37.544 19.3462 37.6672 19.3285ZM39.5342 19.1636C39.8713 18.8277 40.0917 18.4624 40.1824 18.0558C40.2991 17.5314 40.5454 15.4396 40.4936 15.3924C40.4676 15.3689 40.3834 15.4278 40.3056 15.5221C40.2343 15.6222 40.0074 15.8344 39.8129 15.9935C38.5683 17.007 38.4257 17.2485 38.4192 18.2915C38.4127 19.1459 38.4386 19.2166 38.7822 19.3285C39.1906 19.47 39.223 19.4641 39.5342 19.1636ZM41.3752 18.5095C41.5437 18.48 41.7188 18.4329 41.7641 18.3975C41.8095 18.3622 41.9651 18.3209 42.1077 18.2974C42.2503 18.2738 42.4124 18.2443 42.4707 18.2267C42.6263 18.1854 43.1384 17.5726 43.4301 17.0718C43.7672 16.5061 44.2923 15.4219 44.2469 15.3807C44.1951 15.3394 43.294 15.7519 42.756 16.0642C42.2503 16.3647 41.5826 16.948 41.1872 17.4371C40.8631 17.8437 40.8177 17.9262 40.688 18.3151L40.5843 18.6332L40.8307 18.592C40.9603 18.5743 41.2066 18.5331 41.3752 18.5095Z" fill="black"/>
<path d="M37.758 21.3614C37.2459 21.1552 37.2005 20.5541 37.6673 20.2242C37.8164 20.1122 38.3868 20.1299 38.5489 20.2536C38.9767 20.5659 38.8989 21.1728 38.4128 21.3614C38.1405 21.4616 38.0173 21.4616 37.758 21.3614Z" fill="black"/>
<path d="M7.12843 43.3339C6.83672 42.7388 6.72652 42.1908 6.72004 41.3836C6.71356 40.6411 6.72004 40.6058 6.90803 40.2699C7.16733 39.8162 7.48497 39.5864 7.90633 39.5451C8.31473 39.5098 8.52217 39.6217 8.69719 39.9635C8.85277 40.2758 8.86574 41.0713 8.72312 41.5662C8.59347 42.0199 8.01653 43.0629 7.7313 43.3693C7.43959 43.6757 7.2905 43.6698 7.12843 43.3339Z" fill="black"/>
<path d="M50.7295 10.7608C50.4378 10.4956 50.347 10.1657 50.3989 9.52929C50.4702 8.55705 50.7425 7.65552 51.2805 6.60668C51.6565 5.87014 51.7408 5.87603 52.039 6.68328C52.564 8.09745 52.6548 9.27592 52.2983 9.983C51.8315 10.8963 51.2157 11.2027 50.7295 10.7608Z" fill="black"/>
<path d="M5.5402 10.3072C5.31979 10.2247 5.13828 9.97133 5.05401 9.6119C4.89195 8.90482 5.14476 7.20782 5.47537 6.76C5.57261 6.61858 5.67633 6.55966 5.81894 6.54788C6.0199 6.5302 6.03935 6.54788 6.25975 6.94266C6.6098 7.57904 6.81724 8.29791 6.83021 8.92249C6.83669 9.39978 6.81724 9.49405 6.65518 9.80046C6.3894 10.2895 5.98749 10.4722 5.5402 10.3072Z" fill="black"/>
<path d="M47.2095 9.77635C46.6261 9.45227 46.5937 8.75108 47.1252 8.04989C47.378 7.71403 48.2272 6.8891 48.318 6.8891C48.3569 6.8891 48.493 6.80071 48.6227 6.68876C48.7458 6.5768 49.1996 6.29986 49.6275 6.06417C50.2563 5.7283 50.4507 5.6517 50.6322 5.66349L50.8591 5.68116L50.8462 5.97578C50.8397 6.29986 50.3665 7.41352 49.9062 8.18541C49.6145 8.68626 49.0505 9.33442 48.7199 9.57012C48.2208 9.91187 47.6114 9.99437 47.2095 9.77635Z" fill="black"/>
<path d="M8.73593 8.7156C8.00341 8.45634 7.0829 7.55481 6.6032 6.62382C6.38279 6.18778 6.39576 5.98155 6.64857 5.87549C7.03104 5.71639 8.28864 6.19957 9.26101 6.88308C9.93519 7.36036 10.1815 7.67265 10.1815 8.06155C10.1815 8.72739 9.55921 9.01022 8.73593 8.7156Z" fill="black"/>
<path d="M46.1592 6.28258C45.1285 6.09992 44.7137 5.58728 45.1998 5.09232C45.8351 4.42649 47.2937 4.27329 49.4005 4.6445C49.9904 4.75057 50.509 4.86841 50.5609 4.91555C50.6386 4.98626 50.6257 5.02162 50.4571 5.16303C50.1849 5.39283 48.6096 6.09992 48.1234 6.21187C47.5595 6.33561 46.6584 6.37096 46.1592 6.28258Z" fill="black"/>
<path d="M5.33919 6.0174C5.1512 5.99383 4.86597 5.68153 4.86597 5.50476C4.86597 5.29853 5.11878 5.06283 5.39105 5.02748C6.04578 4.9332 6.30508 5.84063 5.66979 5.99383C5.56607 6.0174 5.41698 6.02918 5.33919 6.0174Z" fill="black"/>
<path d="M7.56273 5.77586C7.07006 5.65802 6.84317 5.48714 6.908 5.27501C7.00523 4.95682 8.02298 4.38527 8.91756 4.14368C9.48802 3.99048 10.8299 3.99048 11.1799 4.14368C11.5106 4.29688 11.6856 4.55614 11.6532 4.83898C11.5559 5.53428 10.6095 5.89371 8.87219 5.88192C8.26283 5.88192 7.88037 5.85246 7.56273 5.77586Z" fill="black"/>
<path d="M51.0796 5.42209C50.6842 5.06266 50.924 4.53235 51.475 4.53235C52.0974 4.53235 52.3826 5.263 51.8575 5.50459C51.5658 5.646 51.2935 5.61654 51.0796 5.42209Z" fill="black"/>
<path d="M55.585 48.136C55.196 47.9946 55.0469 47.4996 55.3192 47.2227C55.5007 47.0341 55.9998 46.9575 56.2462 47.0813C56.8296 47.3641 56.6221 48.2008 55.9674 48.189C55.8313 48.189 55.6563 48.1655 55.585 48.136Z" fill="black"/>
<path d="M3.84834 47.4054C3.63442 47.317 3.43994 47.0519 3.43994 46.8457C3.43994 46.7808 3.51773 46.6512 3.60849 46.551C3.75758 46.3919 3.81593 46.3684 4.11412 46.3684C4.52252 46.3684 4.72995 46.5275 4.78181 46.881C4.84664 47.3229 4.34101 47.6058 3.84834 47.4054Z" fill="black"/>
<path d="M56.7646 33.8587C56.6479 33.3284 56.4664 30.8241 56.3043 27.4832C56.246 26.3518 56.1747 24.9848 56.1423 24.4486C56.058 23.1169 56.058 23.0344 56.1747 23.0344C56.2266 23.0344 56.2849 23.0934 56.2979 23.17C56.3562 23.4057 56.6025 27.6953 56.7257 30.5177C56.7646 31.378 56.8229 32.5801 56.8554 33.1929C56.8878 33.8116 56.9072 34.3183 56.8943 34.3301C56.8813 34.3419 56.8229 34.1297 56.7646 33.8587Z" fill="black"/>
<path d="M2.03311 3.00055C1.83216 2.92395 1.6701 2.61754 1.72196 2.40542C1.7803 2.17562 1.98125 2.05777 2.31186 2.05777C2.53875 2.05777 2.61654 2.08723 2.75267 2.24043C3.18051 2.70004 2.67488 3.23624 2.03311 3.00055Z" fill="black"/>
<path d="M54.6255 2.87677C54.1523 2.80606 53.9384 2.39949 54.1653 2.0047C54.2625 1.82793 54.5477 1.70419 54.8524 1.70419C55.2349 1.70419 55.6303 2.22861 55.4942 2.55269C55.384 2.81785 55.0469 2.94748 54.6255 2.87677Z" fill="black"/>
</svg>
