<svg width="354" height="280" viewBox="0 0 354 280" fill="none" xmlns="http://www.w3.org/2000/svg">
<g clip-path="url(#clip0_1_623)">
<rect width="353.5" height="280" fill="url(#paint0_linear_1_623)"/>
<g clip-path="url(#clip1_1_623)">
<path d="M91.9101 118.61C93.9749 110.813 102.575 108.958 110.493 108.729C117.002 108.54 124.259 109.429 124.259 109.429L120.849 122.305C120.849 122.305 113.592 121.417 107.083 121.605C99.1649 121.834 90.5649 123.69 88.5 131.486L91.9101 118.61Z" fill="#0190FF"/>
<path d="M201.476 104.901C191.052 104.901 188.382 115.32 186.887 120.963L175.753 163H182.249L192.121 125.726H198.868L194.376 142.687H200.873L206.259 122.347H193.016C193.695 119.783 194.419 117.052 195.008 114.825C196.098 110.713 197.877 107.726 200.464 107.826C203.324 107.937 201.869 109.877 201.477 111.355C200.935 113.401 202.398 115.458 204.961 115.458C210.527 115.458 211.9 104.901 201.476 104.901ZM164.625 112.257V112.257L156.567 142.687H163.339L166.323 131.419H172.206C178.697 131.419 183.005 127.719 184.169 122.576C185.257 117.773 182.541 112.257 175.268 112.257C171.72 112.257 168.173 112.257 164.625 112.257ZM170.45 115.838H173.053C175.78 115.838 177.943 118.092 177.42 122.014C176.936 125.65 173.113 127.829 169.78 127.829H167.274L170.45 115.838ZM234.671 121.731C228.976 121.731 224.869 126.791 223.883 131.847C222.936 136.706 225.633 143.162 233.061 143.162C238.34 143.162 240.995 140.762 240.995 140.762L239.78 137.664C239.78 137.664 237.561 139.53 234.468 139.53C231.376 139.53 229.436 137.008 229.865 132.991H242.493C243.396 130.625 243.89 121.731 234.671 121.731ZM259.843 122.005C255.607 122.005 253.11 126.522 253.11 126.522L254.216 122.347H247.719L242.333 142.687H248.829C248.829 142.687 250.393 136.744 251.189 133.778C252.418 129.14 254.925 126.236 256.13 126.117C257.523 125.98 257.389 129.446 260.105 129.446C264.226 129.446 265.114 122.005 259.843 122.005H259.843ZM208.707 122.347L207.812 125.727H216.046L203.101 142.687H221.381L222.276 139.307H212.987L225.932 122.347H208.707ZM234.646 125.09V125.09C238.178 125.09 237.375 129.906 237.375 129.906L230.299 129.889C230.299 129.889 231.472 125.09 234.646 125.09Z" fill="#2B01BE"/>
<path d="M141.322 142.734C118.026 141.234 90.9545 128.824 91.9101 118.61L88.6959 130.747C87.721 141.168 112.834 153.54 137.912 155.611L141.322 142.734Z" fill="#2B01BE"/>
<path d="M149.788 126.001C147.724 133.797 139.124 135.653 131.206 135.882C124.697 136.071 117.439 135.182 117.439 135.182L120.849 122.305C120.849 122.305 128.107 123.194 134.616 123.006C142.534 122.777 151.134 120.921 153.198 113.124L149.788 126.001Z" fill="#2B01BE"/>
<path d="M100.376 101.876C123.672 103.377 150.744 115.787 149.788 126.001L153.002 113.864C153.977 103.443 128.864 91.0709 103.786 89L100.376 101.876Z" fill="#0190FF"/>
</g>
<path d="M51.023 183.244H50.915C50.771 183.544 50.57 183.766 50.312 183.91C50.06 184.054 49.793 184.126 49.511 184.126C49.217 184.126 48.944 184.078 48.692 183.982C48.44 183.88 48.218 183.733 48.026 183.541C47.84 183.343 47.693 183.103 47.585 182.821C47.477 182.539 47.423 182.212 47.423 181.84V181.696C47.423 181.33 47.477 181.006 47.585 180.724C47.693 180.442 47.84 180.205 48.026 180.013C48.218 179.815 48.44 179.665 48.692 179.563C48.944 179.461 49.211 179.41 49.493 179.41C49.799 179.41 50.075 179.479 50.321 179.617C50.573 179.749 50.771 179.956 50.915 180.238H51.023V179.536H51.725V183.082C51.725 183.262 51.806 183.352 51.968 183.352H52.193V184H51.716C51.512 184 51.344 183.934 51.212 183.802C51.086 183.67 51.023 183.502 51.023 183.298V183.244ZM49.583 183.46C49.793 183.46 49.985 183.421 50.159 183.343C50.339 183.265 50.492 183.154 50.618 183.01C50.744 182.866 50.843 182.695 50.915 182.497C50.987 182.293 51.023 182.068 51.023 181.822V181.714C51.023 181.474 50.987 181.255 50.915 181.057C50.843 180.853 50.741 180.679 50.609 180.535C50.483 180.391 50.33 180.28 50.15 180.202C49.976 180.118 49.787 180.076 49.583 180.076C49.373 180.076 49.181 180.115 49.007 180.193C48.833 180.271 48.68 180.382 48.548 180.526C48.422 180.664 48.323 180.835 48.251 181.039C48.179 181.237 48.143 181.456 48.143 181.696V181.84C48.143 182.35 48.275 182.749 48.539 183.037C48.809 183.319 49.157 183.46 49.583 183.46ZM53.9957 184H53.2937V179.536H53.9957V180.292H54.1037C54.3797 179.704 54.8597 179.41 55.5437 179.41C56.0597 179.41 56.4707 179.572 56.7767 179.896C57.0827 180.214 57.2357 180.694 57.2357 181.336V184H56.5337V181.48C56.5337 181.012 56.4287 180.661 56.2187 180.427C56.0087 180.193 55.7237 180.076 55.3637 180.076C54.9377 180.076 54.6017 180.223 54.3557 180.517C54.1157 180.805 53.9957 181.192 53.9957 181.678V184ZM63.0165 181.822C63.0165 182.194 62.9535 182.524 62.8275 182.812C62.7075 183.094 62.5455 183.334 62.3415 183.532C62.1375 183.724 61.8975 183.871 61.6215 183.973C61.3515 184.075 61.0695 184.126 60.7755 184.126C60.4755 184.126 60.1905 184.075 59.9205 183.973C59.6505 183.871 59.4135 183.724 59.2095 183.532C59.0055 183.334 58.8405 183.094 58.7145 182.812C58.5945 182.524 58.5345 182.194 58.5345 181.822V181.714C58.5345 181.348 58.5945 181.024 58.7145 180.742C58.8405 180.454 59.0055 180.211 59.2095 180.013C59.4195 179.815 59.6595 179.665 59.9295 179.563C60.1995 179.461 60.4815 179.41 60.7755 179.41C61.0695 179.41 61.3515 179.461 61.6215 179.563C61.8915 179.665 62.1285 179.815 62.3325 180.013C62.5425 180.211 62.7075 180.454 62.8275 180.742C62.9535 181.024 63.0165 181.348 63.0165 181.714V181.822ZM60.7755 183.46C60.9915 183.46 61.1895 183.424 61.3695 183.352C61.5555 183.274 61.7175 183.163 61.8555 183.019C61.9935 182.875 62.1015 182.704 62.1795 182.506C62.2575 182.302 62.2965 182.074 62.2965 181.822V181.714C62.2965 181.474 62.2575 181.255 62.1795 181.057C62.1015 180.853 61.9935 180.679 61.8555 180.535C61.7175 180.391 61.5555 180.28 61.3695 180.202C61.1835 180.118 60.9855 180.076 60.7755 180.076C60.5655 180.076 60.3675 180.118 60.1815 180.202C59.9955 180.28 59.8335 180.391 59.6955 180.535C59.5575 180.679 59.4495 180.853 59.3715 181.057C59.2935 181.255 59.2545 181.474 59.2545 181.714V181.822C59.2545 182.074 59.2935 182.302 59.3715 182.506C59.4495 182.704 59.5575 182.875 59.6955 183.019C59.8335 183.163 59.9925 183.274 60.1725 183.352C60.3585 183.424 60.5595 183.46 60.7755 183.46ZM68.6082 184H67.9062V180.796C67.9062 180.586 67.8582 180.415 67.7622 180.283C67.6662 180.145 67.5132 180.076 67.3032 180.076C67.1052 180.076 66.9432 180.151 66.8172 180.301C66.6972 180.445 66.6372 180.67 66.6372 180.976V184H65.9352V180.76C65.9352 180.562 65.8812 180.4 65.7732 180.274C65.6652 180.142 65.5212 180.076 65.3412 180.076C65.1252 180.076 64.9572 180.154 64.8372 180.31C64.7232 180.466 64.6662 180.67 64.6662 180.922V184H63.9642V179.536H64.6662V180.022H64.7742C64.8522 179.812 64.9662 179.659 65.1162 179.563C65.2662 179.461 65.4432 179.41 65.6472 179.41C65.8632 179.41 66.0402 179.467 66.1782 179.581C66.3222 179.695 66.4212 179.842 66.4752 180.022H66.5832C66.7872 179.614 67.1112 179.41 67.5552 179.41C67.8912 179.41 68.1492 179.518 68.3292 179.734C68.5152 179.944 68.6082 180.22 68.6082 180.562V184ZM73.066 183.244H72.958C72.814 183.544 72.613 183.766 72.355 183.91C72.103 184.054 71.836 184.126 71.554 184.126C71.26 184.126 70.987 184.078 70.735 183.982C70.483 183.88 70.261 183.733 70.069 183.541C69.883 183.343 69.736 183.103 69.628 182.821C69.52 182.539 69.466 182.212 69.466 181.84V181.696C69.466 181.33 69.52 181.006 69.628 180.724C69.736 180.442 69.883 180.205 70.069 180.013C70.261 179.815 70.483 179.665 70.735 179.563C70.987 179.461 71.254 179.41 71.536 179.41C71.842 179.41 72.118 179.479 72.364 179.617C72.616 179.749 72.814 179.956 72.958 180.238H73.066V179.536H73.768V183.082C73.768 183.262 73.849 183.352 74.011 183.352H74.236V184H73.759C73.555 184 73.387 183.934 73.255 183.802C73.129 183.67 73.066 183.502 73.066 183.298V183.244ZM71.626 183.46C71.836 183.46 72.028 183.421 72.202 183.343C72.382 183.265 72.535 183.154 72.661 183.01C72.787 182.866 72.886 182.695 72.958 182.497C73.03 182.293 73.066 182.068 73.066 181.822V181.714C73.066 181.474 73.03 181.255 72.958 181.057C72.886 180.853 72.784 180.679 72.652 180.535C72.526 180.391 72.373 180.28 72.193 180.202C72.019 180.118 71.83 180.076 71.626 180.076C71.416 180.076 71.224 180.115 71.05 180.193C70.876 180.271 70.723 180.382 70.591 180.526C70.465 180.664 70.366 180.835 70.294 181.039C70.222 181.237 70.186 181.456 70.186 181.696V181.84C70.186 182.35 70.318 182.749 70.582 183.037C70.852 183.319 71.2 183.46 71.626 183.46ZM75.3367 183.352H76.9567V178.348H75.3907V177.7H77.6587V183.352H79.2787V184H75.3367V183.352ZM84.0875 183.19H83.9795C83.8355 183.478 83.6465 183.706 83.4125 183.874C83.1785 184.042 82.8815 184.126 82.5215 184.126C82.2755 184.126 82.0475 184.084 81.8375 184C81.6335 183.922 81.4565 183.802 81.3065 183.64C81.1625 183.478 81.0485 183.277 80.9645 183.037C80.8865 182.797 80.8475 182.518 80.8475 182.2V179.536H81.5495V182.11C81.5495 182.578 81.6455 182.92 81.8375 183.136C82.0295 183.352 82.3235 183.46 82.7195 183.46C83.1455 183.46 83.4785 183.316 83.7185 183.028C83.9645 182.734 84.0875 182.344 84.0875 181.858V179.536H84.7895V185.098C84.7895 185.302 84.7235 185.47 84.5915 185.602C84.4655 185.734 84.3005 185.8 84.0965 185.8H81.5495V185.152H83.8445C84.0065 185.152 84.0875 185.062 84.0875 184.882V183.19ZM95.3249 183.316H95.2169C95.1449 183.454 95.0519 183.574 94.9379 183.676C94.8299 183.778 94.7099 183.862 94.5779 183.928C94.4519 183.994 94.3169 184.042 94.1729 184.072C94.0289 184.108 93.8909 184.126 93.7589 184.126C93.4589 184.126 93.1799 184.075 92.9219 183.973C92.6639 183.871 92.4359 183.724 92.2379 183.532C92.0459 183.34 91.8929 183.103 91.7789 182.821C91.6709 182.533 91.6169 182.206 91.6169 181.84V181.696C91.6169 181.336 91.6739 181.015 91.7879 180.733C91.9019 180.445 92.0549 180.205 92.2469 180.013C92.4389 179.815 92.6639 179.665 92.9219 179.563C93.1799 179.461 93.4529 179.41 93.7409 179.41C94.0469 179.41 94.3319 179.479 94.5959 179.617C94.8659 179.749 95.0729 179.956 95.2169 180.238H95.3249V177.7H96.0269V184H95.3249V183.316ZM93.8309 183.46C94.0409 183.46 94.2359 183.421 94.4159 183.343C94.5959 183.265 94.7519 183.154 94.8839 183.01C95.0219 182.866 95.1299 182.695 95.2079 182.497C95.2859 182.293 95.3249 182.068 95.3249 181.822V181.714C95.3249 181.474 95.2859 181.255 95.2079 181.057C95.1299 180.853 95.0219 180.679 94.8839 180.535C94.7519 180.391 94.5929 180.28 94.4069 180.202C94.2269 180.118 94.0349 180.076 93.8309 180.076C93.6209 180.076 93.4229 180.115 93.2369 180.193C93.0569 180.271 92.8979 180.382 92.7599 180.526C92.6279 180.67 92.5229 180.841 92.4449 181.039C92.3729 181.237 92.3369 181.456 92.3369 181.696V181.84C92.3369 182.092 92.3729 182.317 92.4449 182.515C92.5229 182.713 92.6279 182.884 92.7599 183.028C92.8979 183.166 93.0569 183.274 93.2369 183.352C93.4169 183.424 93.6149 183.46 93.8309 183.46ZM97.8927 181.984C97.9107 182.428 98.0487 182.785 98.3067 183.055C98.5647 183.325 98.9247 183.46 99.3867 183.46C99.5967 183.46 99.7797 183.436 99.9357 183.388C100.092 183.34 100.224 183.274 100.332 183.19C100.446 183.106 100.536 183.01 100.602 182.902C100.674 182.788 100.731 182.668 100.773 182.542L101.439 182.722C101.313 183.136 101.079 183.475 100.737 183.739C100.401 183.997 99.9447 184.126 99.3687 184.126C99.0507 184.126 98.7567 184.072 98.4867 183.964C98.2227 183.85 97.9947 183.691 97.8027 183.487C97.6107 183.283 97.4607 183.04 97.3527 182.758C97.2447 182.476 97.1907 182.164 97.1907 181.822V181.606C97.1907 181.294 97.2447 181.003 97.3527 180.733C97.4667 180.463 97.6227 180.232 97.8207 180.04C98.0187 179.842 98.2497 179.689 98.5137 179.581C98.7837 179.467 99.0747 179.41 99.3867 179.41C99.7527 179.41 100.068 179.479 100.332 179.617C100.602 179.749 100.821 179.914 100.989 180.112C101.163 180.31 101.289 180.526 101.367 180.76C101.451 180.994 101.493 181.21 101.493 181.408V181.984H97.8927ZM99.3867 180.076C99.1887 180.076 99.0027 180.109 98.8287 180.175C98.6607 180.235 98.5107 180.322 98.3787 180.436C98.2527 180.55 98.1477 180.685 98.0637 180.841C97.9857 180.991 97.9347 181.156 97.9107 181.336H100.791C100.779 181.144 100.731 180.97 100.647 180.814C100.569 180.658 100.464 180.526 100.332 180.418C100.206 180.31 100.059 180.226 99.8907 180.166C99.7287 180.106 99.5607 180.076 99.3867 180.076ZM102.737 179.536H104.141V177.7H104.843V179.536H106.571V180.184H104.843V183.082C104.843 183.262 104.924 183.352 105.086 183.352H106.355V184H104.834C104.63 184 104.462 183.934 104.33 183.802C104.204 183.67 104.141 183.502 104.141 183.298V180.184H102.737V179.536ZM108.914 181.984C108.932 182.428 109.07 182.785 109.328 183.055C109.586 183.325 109.946 183.46 110.408 183.46C110.618 183.46 110.801 183.436 110.957 183.388C111.113 183.34 111.245 183.274 111.353 183.19C111.467 183.106 111.557 183.01 111.623 182.902C111.695 182.788 111.752 182.668 111.794 182.542L112.46 182.722C112.334 183.136 112.1 183.475 111.758 183.739C111.422 183.997 110.966 184.126 110.39 184.126C110.072 184.126 109.778 184.072 109.508 183.964C109.244 183.85 109.016 183.691 108.824 183.487C108.632 183.283 108.482 183.04 108.374 182.758C108.266 182.476 108.212 182.164 108.212 181.822V181.606C108.212 181.294 108.266 181.003 108.374 180.733C108.488 180.463 108.644 180.232 108.842 180.04C109.04 179.842 109.271 179.689 109.535 179.581C109.805 179.467 110.096 179.41 110.408 179.41C110.774 179.41 111.089 179.479 111.353 179.617C111.623 179.749 111.842 179.914 112.01 180.112C112.184 180.31 112.31 180.526 112.388 180.76C112.472 180.994 112.514 181.21 112.514 181.408V181.984H108.914ZM110.408 180.076C110.21 180.076 110.024 180.109 109.85 180.175C109.682 180.235 109.532 180.322 109.4 180.436C109.274 180.55 109.169 180.685 109.085 180.841C109.007 180.991 108.956 181.156 108.932 181.336H111.812C111.8 181.144 111.752 180.97 111.668 180.814C111.59 180.658 111.485 180.526 111.353 180.418C111.227 180.31 111.08 180.226 110.912 180.166C110.75 180.106 110.582 180.076 110.408 180.076ZM118.088 182.416C118.04 182.662 117.956 182.89 117.836 183.1C117.722 183.31 117.575 183.493 117.395 183.649C117.215 183.799 117.005 183.916 116.765 184C116.525 184.084 116.258 184.126 115.964 184.126C115.652 184.126 115.355 184.075 115.073 183.973C114.797 183.871 114.554 183.724 114.344 183.532C114.134 183.334 113.966 183.094 113.84 182.812C113.72 182.53 113.66 182.206 113.66 181.84V181.732C113.66 181.372 113.72 181.048 113.84 180.76C113.966 180.472 114.134 180.229 114.344 180.031C114.554 179.833 114.797 179.68 115.073 179.572C115.355 179.464 115.652 179.41 115.964 179.41C116.246 179.41 116.507 179.452 116.747 179.536C116.987 179.62 117.197 179.74 117.377 179.896C117.563 180.046 117.713 180.226 117.827 180.436C117.947 180.646 118.028 180.874 118.07 181.12L117.368 181.282C117.35 181.126 117.305 180.976 117.233 180.832C117.167 180.682 117.074 180.553 116.954 180.445C116.84 180.331 116.699 180.241 116.531 180.175C116.363 180.109 116.168 180.076 115.946 180.076C115.73 180.076 115.526 180.118 115.334 180.202C115.148 180.28 114.983 180.394 114.839 180.544C114.695 180.688 114.581 180.862 114.497 181.066C114.419 181.27 114.38 181.492 114.38 181.732V181.84C114.38 182.092 114.419 182.32 114.497 182.524C114.581 182.722 114.695 182.89 114.839 183.028C114.983 183.166 115.151 183.274 115.343 183.352C115.535 183.424 115.742 183.46 115.964 183.46C116.186 183.46 116.378 183.427 116.54 183.361C116.708 183.289 116.849 183.199 116.963 183.091C117.083 182.977 117.176 182.848 117.242 182.704C117.314 182.56 117.362 182.41 117.386 182.254L118.088 182.416ZM119.27 179.536H120.674V177.7H121.376V179.536H123.104V180.184H121.376V183.082C121.376 183.262 121.457 183.352 121.619 183.352H122.888V184H121.367C121.163 184 120.995 183.934 120.863 183.802C120.737 183.67 120.674 183.502 120.674 183.298V180.184H119.27V179.536ZM126.319 178.204C126.319 178.03 126.379 177.883 126.499 177.763C126.625 177.637 126.775 177.574 126.949 177.574C127.123 177.574 127.27 177.637 127.39 177.763C127.516 177.883 127.579 178.03 127.579 178.204C127.579 178.378 127.516 178.528 127.39 178.654C127.27 178.774 127.123 178.834 126.949 178.834C126.775 178.834 126.625 178.774 126.499 178.654C126.379 178.528 126.319 178.378 126.319 178.204ZM125.041 183.352H126.607V180.184H125.203V179.536H127.309V183.352H128.767V184H125.041V183.352ZM134.656 181.822C134.656 182.194 134.593 182.524 134.467 182.812C134.347 183.094 134.185 183.334 133.981 183.532C133.777 183.724 133.537 183.871 133.261 183.973C132.991 184.075 132.709 184.126 132.415 184.126C132.115 184.126 131.83 184.075 131.56 183.973C131.29 183.871 131.053 183.724 130.849 183.532C130.645 183.334 130.48 183.094 130.354 182.812C130.234 182.524 130.174 182.194 130.174 181.822V181.714C130.174 181.348 130.234 181.024 130.354 180.742C130.48 180.454 130.645 180.211 130.849 180.013C131.059 179.815 131.299 179.665 131.569 179.563C131.839 179.461 132.121 179.41 132.415 179.41C132.709 179.41 132.991 179.461 133.261 179.563C133.531 179.665 133.768 179.815 133.972 180.013C134.182 180.211 134.347 180.454 134.467 180.742C134.593 181.024 134.656 181.348 134.656 181.714V181.822ZM132.415 183.46C132.631 183.46 132.829 183.424 133.009 183.352C133.195 183.274 133.357 183.163 133.495 183.019C133.633 182.875 133.741 182.704 133.819 182.506C133.897 182.302 133.936 182.074 133.936 181.822V181.714C133.936 181.474 133.897 181.255 133.819 181.057C133.741 180.853 133.633 180.679 133.495 180.535C133.357 180.391 133.195 180.28 133.009 180.202C132.823 180.118 132.625 180.076 132.415 180.076C132.205 180.076 132.007 180.118 131.821 180.202C131.635 180.28 131.473 180.391 131.335 180.535C131.197 180.679 131.089 180.853 131.011 181.057C130.933 181.255 130.894 181.474 130.894 181.714V181.822C130.894 182.074 130.933 182.302 131.011 182.506C131.089 182.704 131.197 182.875 131.335 183.019C131.473 183.163 131.632 183.274 131.812 183.352C131.998 183.424 132.199 183.46 132.415 183.46ZM136.657 184H135.955V179.536H136.657V180.292H136.765C137.041 179.704 137.521 179.41 138.205 179.41C138.721 179.41 139.132 179.572 139.438 179.896C139.744 180.214 139.897 180.694 139.897 181.336V184H139.195V181.48C139.195 181.012 139.09 180.661 138.88 180.427C138.67 180.193 138.385 180.076 138.025 180.076C137.599 180.076 137.263 180.223 137.017 180.517C136.777 180.805 136.657 181.192 136.657 181.678V184ZM148.362 178.204C148.362 178.03 148.422 177.883 148.542 177.763C148.668 177.637 148.818 177.574 148.992 177.574C149.166 177.574 149.313 177.637 149.433 177.763C149.559 177.883 149.622 178.03 149.622 178.204C149.622 178.378 149.559 178.528 149.433 178.654C149.313 178.774 149.166 178.834 148.992 178.834C148.818 178.834 148.668 178.774 148.542 178.654C148.422 178.528 148.362 178.378 148.362 178.204ZM147.084 183.352H148.65V180.184H147.246V179.536H149.352V183.352H150.81V184H147.084V183.352ZM153.189 184H152.487V179.536H153.189V180.292H153.297C153.573 179.704 154.053 179.41 154.737 179.41C155.253 179.41 155.664 179.572 155.97 179.896C156.276 180.214 156.429 180.694 156.429 181.336V184H155.727V181.48C155.727 181.012 155.622 180.661 155.412 180.427C155.202 180.193 154.917 180.076 154.557 180.076C154.131 180.076 153.795 180.223 153.549 180.517C153.309 180.805 153.189 181.192 153.189 181.678V184ZM166.902 183.316H166.794C166.65 183.586 166.452 183.79 166.2 183.928C165.954 184.06 165.684 184.126 165.39 184.126C165.09 184.126 164.808 184.075 164.544 183.973C164.28 183.871 164.046 183.724 163.842 183.532C163.644 183.34 163.485 183.103 163.365 182.821C163.251 182.533 163.194 182.206 163.194 181.84V181.696C163.194 181.336 163.254 181.015 163.374 180.733C163.494 180.445 163.653 180.205 163.851 180.013C164.049 179.815 164.28 179.665 164.544 179.563C164.808 179.461 165.084 179.41 165.372 179.41C165.696 179.41 165.978 179.482 166.218 179.626C166.464 179.764 166.656 179.968 166.794 180.238H166.902V179.536H167.604V185.098C167.604 185.302 167.538 185.47 167.406 185.602C167.28 185.734 167.115 185.8 166.911 185.8H164.004V185.152H166.659C166.821 185.152 166.902 185.062 166.902 184.882V183.316ZM165.408 183.46C165.618 183.46 165.813 183.421 165.993 183.343C166.173 183.265 166.329 183.154 166.461 183.01C166.599 182.866 166.707 182.695 166.785 182.497C166.863 182.293 166.902 182.068 166.902 181.822V181.714C166.902 181.474 166.863 181.255 166.785 181.057C166.707 180.853 166.599 180.679 166.461 180.535C166.329 180.391 166.17 180.28 165.984 180.202C165.804 180.118 165.612 180.076 165.408 180.076C165.198 180.076 165 180.115 164.814 180.193C164.634 180.271 164.475 180.382 164.337 180.526C164.205 180.67 164.1 180.841 164.022 181.039C163.95 181.237 163.914 181.456 163.914 181.696V181.84C163.914 182.092 163.95 182.317 164.022 182.515C164.1 182.713 164.205 182.884 164.337 183.028C164.475 183.166 164.634 183.274 164.814 183.352C164.994 183.424 165.192 183.46 165.408 183.46ZM169.019 183.352H170.639V178.348H169.073V177.7H171.341V183.352H172.961V184H169.019V183.352ZM178.742 181.822C178.742 182.194 178.679 182.524 178.553 182.812C178.433 183.094 178.271 183.334 178.067 183.532C177.863 183.724 177.623 183.871 177.347 183.973C177.077 184.075 176.795 184.126 176.501 184.126C176.201 184.126 175.916 184.075 175.646 183.973C175.376 183.871 175.139 183.724 174.935 183.532C174.731 183.334 174.566 183.094 174.44 182.812C174.32 182.524 174.26 182.194 174.26 181.822V181.714C174.26 181.348 174.32 181.024 174.44 180.742C174.566 180.454 174.731 180.211 174.935 180.013C175.145 179.815 175.385 179.665 175.655 179.563C175.925 179.461 176.207 179.41 176.501 179.41C176.795 179.41 177.077 179.461 177.347 179.563C177.617 179.665 177.854 179.815 178.058 180.013C178.268 180.211 178.433 180.454 178.553 180.742C178.679 181.024 178.742 181.348 178.742 181.714V181.822ZM176.501 183.46C176.717 183.46 176.915 183.424 177.095 183.352C177.281 183.274 177.443 183.163 177.581 183.019C177.719 182.875 177.827 182.704 177.905 182.506C177.983 182.302 178.022 182.074 178.022 181.822V181.714C178.022 181.474 177.983 181.255 177.905 181.057C177.827 180.853 177.719 180.679 177.581 180.535C177.443 180.391 177.281 180.28 177.095 180.202C176.909 180.118 176.711 180.076 176.501 180.076C176.291 180.076 176.093 180.118 175.907 180.202C175.721 180.28 175.559 180.391 175.421 180.535C175.283 180.679 175.175 180.853 175.097 181.057C175.019 181.255 174.98 181.474 174.98 181.714V181.822C174.98 182.074 175.019 182.302 175.097 182.506C175.175 182.704 175.283 182.875 175.421 183.019C175.559 183.163 175.718 183.274 175.898 183.352C176.084 183.424 176.285 183.46 176.501 183.46ZM180.581 184H179.879V177.7H180.581V180.238H180.689C180.845 179.968 181.061 179.764 181.337 179.626C181.613 179.482 181.913 179.41 182.237 179.41C182.513 179.41 182.774 179.461 183.02 179.563C183.266 179.665 183.482 179.812 183.668 180.004C183.86 180.196 184.01 180.433 184.118 180.715C184.232 180.997 184.289 181.318 184.289 181.678V181.858C184.289 182.224 184.235 182.548 184.127 182.83C184.019 183.112 183.869 183.349 183.677 183.541C183.491 183.733 183.272 183.88 183.02 183.982C182.768 184.078 182.501 184.126 182.219 184.126C182.075 184.126 181.928 184.108 181.778 184.072C181.628 184.042 181.484 183.994 181.346 183.928C181.214 183.856 181.091 183.772 180.977 183.676C180.863 183.574 180.767 183.454 180.689 183.316H180.581V184ZM182.075 183.46C182.291 183.46 182.489 183.424 182.669 183.352C182.849 183.274 183.005 183.166 183.137 183.028C183.275 182.89 183.38 182.722 183.452 182.524C183.53 182.326 183.569 182.104 183.569 181.858V181.678C183.569 181.438 183.53 181.222 183.452 181.03C183.38 180.832 183.275 180.664 183.137 180.526C183.005 180.382 182.846 180.271 182.66 180.193C182.48 180.115 182.285 180.076 182.075 180.076C181.865 180.076 181.67 180.118 181.49 180.202C181.31 180.28 181.151 180.391 181.013 180.535C180.881 180.679 180.776 180.853 180.698 181.057C180.62 181.255 180.581 181.474 180.581 181.714V181.822C180.581 182.068 180.62 182.293 180.698 182.497C180.776 182.695 180.881 182.866 181.013 183.01C181.151 183.154 181.31 183.265 181.49 183.343C181.67 183.421 181.865 183.46 182.075 183.46ZM188.792 183.244H188.684C188.54 183.544 188.339 183.766 188.081 183.91C187.829 184.054 187.562 184.126 187.28 184.126C186.986 184.126 186.713 184.078 186.461 183.982C186.209 183.88 185.987 183.733 185.795 183.541C185.609 183.343 185.462 183.103 185.354 182.821C185.246 182.539 185.192 182.212 185.192 181.84V181.696C185.192 181.33 185.246 181.006 185.354 180.724C185.462 180.442 185.609 180.205 185.795 180.013C185.987 179.815 186.209 179.665 186.461 179.563C186.713 179.461 186.98 179.41 187.262 179.41C187.568 179.41 187.844 179.479 188.09 179.617C188.342 179.749 188.54 179.956 188.684 180.238H188.792V179.536H189.494V183.082C189.494 183.262 189.575 183.352 189.737 183.352H189.962V184H189.485C189.281 184 189.113 183.934 188.981 183.802C188.855 183.67 188.792 183.502 188.792 183.298V183.244ZM187.352 183.46C187.562 183.46 187.754 183.421 187.928 183.343C188.108 183.265 188.261 183.154 188.387 183.01C188.513 182.866 188.612 182.695 188.684 182.497C188.756 182.293 188.792 182.068 188.792 181.822V181.714C188.792 181.474 188.756 181.255 188.684 181.057C188.612 180.853 188.51 180.679 188.378 180.535C188.252 180.391 188.099 180.28 187.919 180.202C187.745 180.118 187.556 180.076 187.352 180.076C187.142 180.076 186.95 180.115 186.776 180.193C186.602 180.271 186.449 180.382 186.317 180.526C186.191 180.664 186.092 180.835 186.02 181.039C185.948 181.237 185.912 181.456 185.912 181.696V181.84C185.912 182.35 186.044 182.749 186.308 183.037C186.578 183.319 186.926 183.46 187.352 183.46ZM191.062 183.352H192.682V178.348H191.116V177.7H193.384V183.352H195.004V184H191.062V183.352ZM202.786 184H202.084V177.7H202.786V180.346H202.894C203.032 180.058 203.224 179.83 203.47 179.662C203.722 179.494 204.028 179.41 204.388 179.41C204.874 179.41 205.267 179.572 205.567 179.896C205.873 180.214 206.026 180.694 206.026 181.336V184H205.324V181.48C205.324 181.012 205.219 180.661 205.009 180.427C204.799 180.193 204.514 180.076 204.154 180.076C203.728 180.076 203.392 180.223 203.146 180.517C202.906 180.805 202.786 181.192 202.786 181.678V184ZM208.108 181.984C208.126 182.428 208.264 182.785 208.522 183.055C208.78 183.325 209.14 183.46 209.602 183.46C209.812 183.46 209.995 183.436 210.151 183.388C210.307 183.34 210.439 183.274 210.547 183.19C210.661 183.106 210.751 183.01 210.817 182.902C210.889 182.788 210.946 182.668 210.988 182.542L211.654 182.722C211.528 183.136 211.294 183.475 210.952 183.739C210.616 183.997 210.16 184.126 209.584 184.126C209.266 184.126 208.972 184.072 208.702 183.964C208.438 183.85 208.21 183.691 208.018 183.487C207.826 183.283 207.676 183.04 207.568 182.758C207.46 182.476 207.406 182.164 207.406 181.822V181.606C207.406 181.294 207.46 181.003 207.568 180.733C207.682 180.463 207.838 180.232 208.036 180.04C208.234 179.842 208.465 179.689 208.729 179.581C208.999 179.467 209.29 179.41 209.602 179.41C209.968 179.41 210.283 179.479 210.547 179.617C210.817 179.749 211.036 179.914 211.204 180.112C211.378 180.31 211.504 180.526 211.582 180.76C211.666 180.994 211.708 181.21 211.708 181.408V181.984H208.108ZM209.602 180.076C209.404 180.076 209.218 180.109 209.044 180.175C208.876 180.235 208.726 180.322 208.594 180.436C208.468 180.55 208.363 180.685 208.279 180.841C208.201 180.991 208.15 181.156 208.126 181.336H211.006C210.994 181.144 210.946 180.97 210.862 180.814C210.784 180.658 210.679 180.526 210.547 180.418C210.421 180.31 210.274 180.226 210.106 180.166C209.944 180.106 209.776 180.076 209.602 180.076ZM216.345 183.244H216.237C216.093 183.544 215.892 183.766 215.634 183.91C215.382 184.054 215.115 184.126 214.833 184.126C214.539 184.126 214.266 184.078 214.014 183.982C213.762 183.88 213.54 183.733 213.348 183.541C213.162 183.343 213.015 183.103 212.907 182.821C212.799 182.539 212.745 182.212 212.745 181.84V181.696C212.745 181.33 212.799 181.006 212.907 180.724C213.015 180.442 213.162 180.205 213.348 180.013C213.54 179.815 213.762 179.665 214.014 179.563C214.266 179.461 214.533 179.41 214.815 179.41C215.121 179.41 215.397 179.479 215.643 179.617C215.895 179.749 216.093 179.956 216.237 180.238H216.345V179.536H217.047V183.082C217.047 183.262 217.128 183.352 217.29 183.352H217.515V184H217.038C216.834 184 216.666 183.934 216.534 183.802C216.408 183.67 216.345 183.502 216.345 183.298V183.244ZM214.905 183.46C215.115 183.46 215.307 183.421 215.481 183.343C215.661 183.265 215.814 183.154 215.94 183.01C216.066 182.866 216.165 182.695 216.237 182.497C216.309 182.293 216.345 182.068 216.345 181.822V181.714C216.345 181.474 216.309 181.255 216.237 181.057C216.165 180.853 216.063 180.679 215.931 180.535C215.805 180.391 215.652 180.28 215.472 180.202C215.298 180.118 215.109 180.076 214.905 180.076C214.695 180.076 214.503 180.115 214.329 180.193C214.155 180.271 214.002 180.382 213.87 180.526C213.744 180.664 213.645 180.835 213.573 181.039C213.501 181.237 213.465 181.456 213.465 181.696V181.84C213.465 182.35 213.597 182.749 213.861 183.037C214.131 183.319 214.479 183.46 214.905 183.46ZM218.616 183.352H220.236V178.348H218.67V177.7H220.938V183.352H222.558V184H218.616V183.352ZM223.974 179.536H225.378V177.7H226.08V179.536H227.808V180.184H226.08V183.082C226.08 183.262 226.161 183.352 226.323 183.352H227.592V184H226.071C225.867 184 225.699 183.934 225.567 183.802C225.441 183.67 225.378 183.502 225.378 183.298V180.184H223.974V179.536ZM230.339 184H229.637V177.7H230.339V180.346H230.447C230.585 180.058 230.777 179.83 231.023 179.662C231.275 179.494 231.581 179.41 231.941 179.41C232.427 179.41 232.82 179.572 233.12 179.896C233.426 180.214 233.579 180.694 233.579 181.336V184H232.877V181.48C232.877 181.012 232.772 180.661 232.562 180.427C232.352 180.193 232.067 180.076 231.707 180.076C231.281 180.076 230.945 180.223 230.699 180.517C230.459 180.805 230.339 181.192 230.339 181.678V184ZM239.324 182.416C239.276 182.662 239.192 182.89 239.072 183.1C238.958 183.31 238.811 183.493 238.631 183.649C238.451 183.799 238.241 183.916 238.001 184C237.761 184.084 237.494 184.126 237.2 184.126C236.888 184.126 236.591 184.075 236.309 183.973C236.033 183.871 235.79 183.724 235.58 183.532C235.37 183.334 235.202 183.094 235.076 182.812C234.956 182.53 234.896 182.206 234.896 181.84V181.732C234.896 181.372 234.956 181.048 235.076 180.76C235.202 180.472 235.37 180.229 235.58 180.031C235.79 179.833 236.033 179.68 236.309 179.572C236.591 179.464 236.888 179.41 237.2 179.41C237.482 179.41 237.743 179.452 237.983 179.536C238.223 179.62 238.433 179.74 238.613 179.896C238.799 180.046 238.949 180.226 239.063 180.436C239.183 180.646 239.264 180.874 239.306 181.12L238.604 181.282C238.586 181.126 238.541 180.976 238.469 180.832C238.403 180.682 238.31 180.553 238.19 180.445C238.076 180.331 237.935 180.241 237.767 180.175C237.599 180.109 237.404 180.076 237.182 180.076C236.966 180.076 236.762 180.118 236.57 180.202C236.384 180.28 236.219 180.394 236.075 180.544C235.931 180.688 235.817 180.862 235.733 181.066C235.655 181.27 235.616 181.492 235.616 181.732V181.84C235.616 182.092 235.655 182.32 235.733 182.524C235.817 182.722 235.931 182.89 236.075 183.028C236.219 183.166 236.387 183.274 236.579 183.352C236.771 183.424 236.978 183.46 237.2 183.46C237.422 183.46 237.614 183.427 237.776 183.361C237.944 183.289 238.085 183.199 238.199 183.091C238.319 182.977 238.412 182.848 238.478 182.704C238.55 182.56 238.598 182.41 238.622 182.254L239.324 182.416ZM243.899 183.244H243.791C243.647 183.544 243.446 183.766 243.188 183.91C242.936 184.054 242.669 184.126 242.387 184.126C242.093 184.126 241.82 184.078 241.568 183.982C241.316 183.88 241.094 183.733 240.902 183.541C240.716 183.343 240.569 183.103 240.461 182.821C240.353 182.539 240.299 182.212 240.299 181.84V181.696C240.299 181.33 240.353 181.006 240.461 180.724C240.569 180.442 240.716 180.205 240.902 180.013C241.094 179.815 241.316 179.665 241.568 179.563C241.82 179.461 242.087 179.41 242.369 179.41C242.675 179.41 242.951 179.479 243.197 179.617C243.449 179.749 243.647 179.956 243.791 180.238H243.899V179.536H244.601V183.082C244.601 183.262 244.682 183.352 244.844 183.352H245.069V184H244.592C244.388 184 244.22 183.934 244.088 183.802C243.962 183.67 243.899 183.502 243.899 183.298V183.244ZM242.459 183.46C242.669 183.46 242.861 183.421 243.035 183.343C243.215 183.265 243.368 183.154 243.494 183.01C243.62 182.866 243.719 182.695 243.791 182.497C243.863 182.293 243.899 182.068 243.899 181.822V181.714C243.899 181.474 243.863 181.255 243.791 181.057C243.719 180.853 243.617 180.679 243.485 180.535C243.359 180.391 243.206 180.28 243.026 180.202C242.852 180.118 242.663 180.076 242.459 180.076C242.249 180.076 242.057 180.115 241.883 180.193C241.709 180.271 241.556 180.382 241.424 180.526C241.298 180.664 241.199 180.835 241.127 181.039C241.055 181.237 241.019 181.456 241.019 181.696V181.84C241.019 182.35 241.151 182.749 241.415 183.037C241.685 183.319 242.033 183.46 242.459 183.46ZM245.918 179.536H247.538V180.13H247.646C247.76 179.884 247.922 179.704 248.132 179.59C248.342 179.47 248.582 179.41 248.852 179.41C249.302 179.41 249.665 179.557 249.941 179.851C250.217 180.145 250.364 180.574 250.382 181.138L249.644 181.246C249.644 180.832 249.545 180.535 249.347 180.355C249.149 180.169 248.906 180.076 248.618 180.076C248.432 180.076 248.27 180.112 248.132 180.184C248 180.256 247.889 180.355 247.799 180.481C247.709 180.607 247.643 180.754 247.601 180.922C247.559 181.09 247.538 181.27 247.538 181.462V183.352H248.672V184H245.81V183.352H246.836V180.184H245.918V179.536ZM252.193 181.984C252.211 182.428 252.349 182.785 252.607 183.055C252.865 183.325 253.225 183.46 253.687 183.46C253.897 183.46 254.08 183.436 254.236 183.388C254.392 183.34 254.524 183.274 254.632 183.19C254.746 183.106 254.836 183.01 254.902 182.902C254.974 182.788 255.031 182.668 255.073 182.542L255.739 182.722C255.613 183.136 255.379 183.475 255.037 183.739C254.701 183.997 254.245 184.126 253.669 184.126C253.351 184.126 253.057 184.072 252.787 183.964C252.523 183.85 252.295 183.691 252.103 183.487C251.911 183.283 251.761 183.04 251.653 182.758C251.545 182.476 251.491 182.164 251.491 181.822V181.606C251.491 181.294 251.545 181.003 251.653 180.733C251.767 180.463 251.923 180.232 252.121 180.04C252.319 179.842 252.55 179.689 252.814 179.581C253.084 179.467 253.375 179.41 253.687 179.41C254.053 179.41 254.368 179.479 254.632 179.617C254.902 179.749 255.121 179.914 255.289 180.112C255.463 180.31 255.589 180.526 255.667 180.76C255.751 180.994 255.793 181.21 255.793 181.408V181.984H252.193ZM253.687 180.076C253.489 180.076 253.303 180.109 253.129 180.175C252.961 180.235 252.811 180.322 252.679 180.436C252.553 180.55 252.448 180.685 252.364 180.841C252.286 180.991 252.235 181.156 252.211 181.336H255.091C255.079 181.144 255.031 180.97 254.947 180.814C254.869 180.658 254.764 180.526 254.632 180.418C254.506 180.31 254.359 180.226 254.191 180.166C254.029 180.106 253.861 180.076 253.687 180.076ZM263.242 185.8H262.54V179.536H263.242V180.238H263.35C263.506 179.968 263.722 179.764 263.998 179.626C264.274 179.482 264.574 179.41 264.898 179.41C265.174 179.41 265.435 179.461 265.681 179.563C265.927 179.665 266.143 179.812 266.329 180.004C266.521 180.196 266.671 180.433 266.779 180.715C266.893 180.997 266.95 181.318 266.95 181.678V181.858C266.95 182.224 266.896 182.548 266.788 182.83C266.68 183.112 266.53 183.349 266.338 183.541C266.152 183.733 265.933 183.88 265.681 183.982C265.429 184.078 265.162 184.126 264.88 184.126C264.736 184.126 264.589 184.108 264.439 184.072C264.289 184.042 264.145 183.994 264.007 183.928C263.875 183.856 263.752 183.772 263.638 183.676C263.524 183.574 263.428 183.454 263.35 183.316H263.242V185.8ZM264.736 183.46C264.952 183.46 265.15 183.424 265.33 183.352C265.51 183.274 265.666 183.166 265.798 183.028C265.936 182.89 266.041 182.722 266.113 182.524C266.191 182.326 266.23 182.104 266.23 181.858V181.678C266.23 181.438 266.191 181.222 266.113 181.03C266.041 180.832 265.936 180.664 265.798 180.526C265.666 180.382 265.507 180.271 265.321 180.193C265.141 180.115 264.946 180.076 264.736 180.076C264.526 180.076 264.331 180.118 264.151 180.202C263.971 180.28 263.812 180.391 263.674 180.535C263.542 180.679 263.437 180.853 263.359 181.057C263.281 181.255 263.242 181.474 263.242 181.714V181.822C263.242 182.068 263.281 182.293 263.359 182.497C263.437 182.695 263.542 182.866 263.674 183.01C263.812 183.154 263.971 183.265 264.151 183.343C264.331 183.421 264.526 183.46 264.736 183.46ZM271.453 183.244H271.345C271.201 183.544 271 183.766 270.742 183.91C270.49 184.054 270.223 184.126 269.941 184.126C269.647 184.126 269.374 184.078 269.122 183.982C268.87 183.88 268.648 183.733 268.456 183.541C268.27 183.343 268.123 183.103 268.015 182.821C267.907 182.539 267.853 182.212 267.853 181.84V181.696C267.853 181.33 267.907 181.006 268.015 180.724C268.123 180.442 268.27 180.205 268.456 180.013C268.648 179.815 268.87 179.665 269.122 179.563C269.374 179.461 269.641 179.41 269.923 179.41C270.229 179.41 270.505 179.479 270.751 179.617C271.003 179.749 271.201 179.956 271.345 180.238H271.453V179.536H272.155V183.082C272.155 183.262 272.236 183.352 272.398 183.352H272.623V184H272.146C271.942 184 271.774 183.934 271.642 183.802C271.516 183.67 271.453 183.502 271.453 183.298V183.244ZM270.013 183.46C270.223 183.46 270.415 183.421 270.589 183.343C270.769 183.265 270.922 183.154 271.048 183.01C271.174 182.866 271.273 182.695 271.345 182.497C271.417 182.293 271.453 182.068 271.453 181.822V181.714C271.453 181.474 271.417 181.255 271.345 181.057C271.273 180.853 271.171 180.679 271.039 180.535C270.913 180.391 270.76 180.28 270.58 180.202C270.406 180.118 270.217 180.076 270.013 180.076C269.803 180.076 269.611 180.115 269.437 180.193C269.263 180.271 269.11 180.382 268.978 180.526C268.852 180.664 268.753 180.835 268.681 181.039C268.609 181.237 268.573 181.456 268.573 181.696V181.84C268.573 182.35 268.705 182.749 268.969 183.037C269.239 183.319 269.587 183.46 270.013 183.46ZM276.963 183.19H276.855C276.711 183.478 276.522 183.706 276.288 183.874C276.054 184.042 275.757 184.126 275.397 184.126C275.151 184.126 274.923 184.084 274.713 184C274.509 183.922 274.332 183.802 274.182 183.64C274.038 183.478 273.924 183.277 273.84 183.037C273.762 182.797 273.723 182.518 273.723 182.2V179.536H274.425V182.11C274.425 182.578 274.521 182.92 274.713 183.136C274.905 183.352 275.199 183.46 275.595 183.46C276.021 183.46 276.354 183.316 276.594 183.028C276.84 182.734 276.963 182.344 276.963 181.858V179.536H277.665V185.098C277.665 185.302 277.599 185.47 277.467 185.602C277.341 185.734 277.176 185.8 276.972 185.8H274.425V185.152H276.72C276.882 185.152 276.963 185.062 276.963 184.882V183.19ZM283.527 184H282.825V180.796C282.825 180.586 282.777 180.415 282.681 180.283C282.585 180.145 282.432 180.076 282.222 180.076C282.024 180.076 281.862 180.151 281.736 180.301C281.616 180.445 281.556 180.67 281.556 180.976V184H280.854V180.76C280.854 180.562 280.8 180.4 280.692 180.274C280.584 180.142 280.44 180.076 280.26 180.076C280.044 180.076 279.876 180.154 279.756 180.31C279.642 180.466 279.585 180.67 279.585 180.922V184H278.883V179.536H279.585V180.022H279.693C279.771 179.812 279.885 179.659 280.035 179.563C280.185 179.461 280.362 179.41 280.566 179.41C280.782 179.41 280.959 179.467 281.097 179.581C281.241 179.695 281.34 179.842 281.394 180.022H281.502C281.706 179.614 282.03 179.41 282.474 179.41C282.81 179.41 283.068 179.518 283.248 179.734C283.434 179.944 283.527 180.22 283.527 180.562V184ZM285.258 181.984C285.276 182.428 285.414 182.785 285.672 183.055C285.93 183.325 286.29 183.46 286.752 183.46C286.962 183.46 287.145 183.436 287.301 183.388C287.457 183.34 287.589 183.274 287.697 183.19C287.811 183.106 287.901 183.01 287.967 182.902C288.039 182.788 288.096 182.668 288.138 182.542L288.804 182.722C288.678 183.136 288.444 183.475 288.102 183.739C287.766 183.997 287.31 184.126 286.734 184.126C286.416 184.126 286.122 184.072 285.852 183.964C285.588 183.85 285.36 183.691 285.168 183.487C284.976 183.283 284.826 183.04 284.718 182.758C284.61 182.476 284.556 182.164 284.556 181.822V181.606C284.556 181.294 284.61 181.003 284.718 180.733C284.832 180.463 284.988 180.232 285.186 180.04C285.384 179.842 285.615 179.689 285.879 179.581C286.149 179.467 286.44 179.41 286.752 179.41C287.118 179.41 287.433 179.479 287.697 179.617C287.967 179.749 288.186 179.914 288.354 180.112C288.528 180.31 288.654 180.526 288.732 180.76C288.816 180.994 288.858 181.21 288.858 181.408V181.984H285.258ZM286.752 180.076C286.554 180.076 286.368 180.109 286.194 180.175C286.026 180.235 285.876 180.322 285.744 180.436C285.618 180.55 285.513 180.685 285.429 180.841C285.351 180.991 285.3 181.156 285.276 181.336H288.156C288.144 181.144 288.096 180.97 288.012 180.814C287.934 180.658 287.829 180.526 287.697 180.418C287.571 180.31 287.424 180.226 287.256 180.166C287.094 180.106 286.926 180.076 286.752 180.076ZM290.958 184H290.256V179.536H290.958V180.292H291.066C291.342 179.704 291.822 179.41 292.506 179.41C293.022 179.41 293.433 179.572 293.739 179.896C294.045 180.214 294.198 180.694 294.198 181.336V184H293.496V181.48C293.496 181.012 293.391 180.661 293.181 180.427C292.971 180.193 292.686 180.076 292.326 180.076C291.9 180.076 291.564 180.223 291.318 180.517C291.078 180.805 290.958 181.192 290.958 181.678V184ZM295.613 179.536H297.017V177.7H297.719V179.536H299.447V180.184H297.719V183.082C297.719 183.262 297.8 183.352 297.962 183.352H299.231V184H297.71C297.506 184 297.338 183.934 297.206 183.802C297.08 183.67 297.017 183.502 297.017 183.298V180.184H295.613V179.536ZM302.204 180.688C302.204 180.904 302.294 181.069 302.474 181.183C302.66 181.297 302.996 181.372 303.482 181.408C304.004 181.45 304.4 181.576 304.67 181.786C304.946 181.99 305.084 182.29 305.084 182.686V182.74C305.084 182.956 305.039 183.151 304.949 183.325C304.865 183.493 304.745 183.637 304.589 183.757C304.439 183.877 304.253 183.967 304.031 184.027C303.815 184.093 303.578 184.126 303.32 184.126C302.972 184.126 302.672 184.081 302.42 183.991C302.174 183.895 301.967 183.772 301.799 183.622C301.637 183.466 301.514 183.292 301.43 183.1C301.346 182.902 301.298 182.704 301.286 182.506L301.952 182.344C301.982 182.686 302.114 182.962 302.348 183.172C302.582 183.376 302.894 183.478 303.284 183.478C303.614 183.478 303.878 183.415 304.076 183.289C304.28 183.157 304.382 182.974 304.382 182.74C304.382 182.488 304.283 182.308 304.085 182.2C303.887 182.092 303.566 182.023 303.122 181.993C302.606 181.957 302.21 181.837 301.934 181.633C301.658 181.429 301.52 181.132 301.52 180.742V180.688C301.52 180.478 301.565 180.295 301.655 180.139C301.745 179.977 301.865 179.842 302.015 179.734C302.171 179.626 302.345 179.545 302.537 179.491C302.729 179.437 302.93 179.41 303.14 179.41C303.434 179.41 303.692 179.452 303.914 179.536C304.136 179.614 304.322 179.719 304.472 179.851C304.622 179.977 304.736 180.124 304.814 180.292C304.898 180.46 304.952 180.628 304.976 180.796L304.31 180.958C304.28 180.67 304.163 180.445 303.959 180.283C303.761 180.121 303.5 180.04 303.176 180.04C303.05 180.04 302.927 180.055 302.807 180.085C302.693 180.109 302.591 180.148 302.501 180.202C302.411 180.256 302.339 180.325 302.285 180.409C302.231 180.487 302.204 180.58 302.204 180.688Z" fill="#002E8A"/>
</g>
<defs>
<linearGradient id="paint0_linear_1_623" x1="74.7033" y1="3.23868e-06" x2="215.902" y2="308.762" gradientUnits="userSpaceOnUse">
<stop offset="0.5" stop-color="#DDE4F0"/>
<stop offset="1" stop-color="#C8D8ED"/>
</linearGradient>
<clipPath id="clip0_1_623">
<rect width="353.5" height="280" fill="white"/>
</clipPath>
<clipPath id="clip1_1_623">
<rect width="175" height="74" fill="white" transform="translate(88.5 89)"/>
</clipPath>
</defs>
</svg>
