<svg width="354" height="280" viewBox="0 0 354 280" fill="none" xmlns="http://www.w3.org/2000/svg">
<g clip-path="url(#clip0_1_610)">
<rect width="353.5" height="280" fill="url(#paint0_linear_1_610)"/>
<path d="M210 207L209.69 204.519L210 207ZM205.917 -17.3256C204.633 -17.8321 203.181 -17.2015 202.674 -15.9171C202.168 -14.6326 202.798 -13.1808 204.083 -12.6742L205 -14.9999L205.917 -17.3256ZM353.999 280L356.498 279.919C355.61 252.442 314.755 191.386 209.69 204.519L210 207L210.31 209.481C313.245 196.614 350.732 256.285 351.501 280.08L353.999 280ZM210 207L209.69 204.519C98.2065 218.455 28.4547 176.534 0.917279 165.674L0.000103267 168L-0.917072 170.325C26.0963 180.979 97.2582 223.612 210.31 209.481L210 207ZM242.5 302L242.5 299.5C186.776 299.5 133.526 269.116 90.5459 237.03C69.092 221.014 50.3065 204.66 35.1184 191.581C27.5394 185.054 20.8278 179.319 15.151 174.877C9.53614 170.484 4.70222 167.167 0.917279 165.674L0.000103267 168L-0.917072 170.325C2.11683 171.522 6.43949 174.409 12.0699 178.815C17.6384 183.172 24.2609 188.829 31.8557 195.37C47.015 208.424 65.9357 224.897 87.5548 241.037C130.721 273.262 185.082 304.5 242.5 304.5L242.5 302ZM421.921 24.1373L421.921 21.6373C309.21 21.6373 233.034 -6.63164 205.917 -17.3256L205 -14.9999L204.083 -12.6742C231.517 -1.85497 308.348 26.6373 421.921 26.6373L421.921 24.1373Z" fill="#01C2E0"/>
<path d="M120.202 75L117.673 68.7H118.438L121.003 75H120.202ZM115.081 75L117.646 68.7H118.42L115.891 75H115.081ZM116.296 73.209V72.525H119.797V73.209H116.296ZM121.928 75V68.7H122.693V75H121.928ZM124.056 72.651V71.994H126.756V72.651H124.056ZM127.962 76.8V70.5H128.637L128.682 71.328V76.8H127.962ZM130.203 75.108C129.825 75.108 129.492 75.009 129.204 74.811C128.922 74.613 128.703 74.337 128.547 73.983C128.391 73.623 128.313 73.212 128.313 72.75C128.313 72.282 128.391 71.871 128.547 71.517C128.703 71.163 128.922 70.887 129.204 70.689C129.492 70.491 129.825 70.392 130.203 70.392C130.605 70.392 130.959 70.491 131.265 70.689C131.571 70.887 131.808 71.163 131.976 71.517C132.15 71.871 132.237 72.282 132.237 72.75C132.237 73.212 132.15 73.623 131.976 73.983C131.808 74.337 131.571 74.613 131.265 74.811C130.959 75.009 130.605 75.108 130.203 75.108ZM130.041 74.451C130.323 74.451 130.572 74.379 130.788 74.235C131.01 74.091 131.184 73.89 131.31 73.632C131.442 73.374 131.508 73.08 131.508 72.75C131.508 72.42 131.445 72.126 131.319 71.868C131.199 71.61 131.028 71.409 130.806 71.265C130.584 71.121 130.332 71.049 130.05 71.049C129.786 71.049 129.549 71.121 129.339 71.265C129.135 71.409 128.973 71.61 128.853 71.868C128.739 72.126 128.682 72.42 128.682 72.75C128.682 73.08 128.739 73.374 128.853 73.632C128.973 73.89 129.135 74.091 129.339 74.235C129.543 74.379 129.777 74.451 130.041 74.451ZM135.223 75.108C134.785 75.108 134.395 75.009 134.053 74.811C133.717 74.607 133.453 74.328 133.261 73.974C133.069 73.62 132.973 73.212 132.973 72.75C132.973 72.288 133.066 71.88 133.252 71.526C133.444 71.172 133.708 70.896 134.044 70.698C134.386 70.494 134.773 70.392 135.205 70.392C135.649 70.392 136.039 70.494 136.375 70.698C136.717 70.896 136.981 71.172 137.167 71.526C137.359 71.88 137.455 72.288 137.455 72.75C137.455 73.212 137.359 73.62 137.167 73.974C136.981 74.328 136.72 74.607 136.384 74.811C136.048 75.009 135.661 75.108 135.223 75.108ZM135.223 74.442C135.523 74.442 135.784 74.37 136.006 74.226C136.228 74.082 136.402 73.884 136.528 73.632C136.66 73.38 136.726 73.086 136.726 72.75C136.726 72.414 136.66 72.12 136.528 71.868C136.402 71.616 136.225 71.418 135.997 71.274C135.769 71.13 135.505 71.058 135.205 71.058C134.911 71.058 134.65 71.13 134.422 71.274C134.2 71.418 134.023 71.616 133.891 71.868C133.765 72.12 133.702 72.414 133.702 72.75C133.702 73.08 133.765 73.374 133.891 73.632C134.023 73.884 134.203 74.082 134.431 74.226C134.665 74.37 134.929 74.442 135.223 74.442ZM142.427 75L143.948 70.5H144.677L143.147 75H142.427ZM139.367 75L140.888 70.5H141.563L140.06 75H139.367ZM139.331 75L137.801 70.5H138.53L140.033 75H139.331ZM142.427 75L140.924 70.5H141.608L143.111 75H142.427ZM147.264 75.108C146.826 75.108 146.439 75.009 146.103 74.811C145.767 74.607 145.503 74.328 145.311 73.974C145.125 73.62 145.032 73.212 145.032 72.75C145.032 72.288 145.125 71.88 145.311 71.526C145.503 71.172 145.764 70.896 146.094 70.698C146.43 70.494 146.814 70.392 147.246 70.392C147.666 70.392 148.029 70.497 148.335 70.707C148.641 70.911 148.878 71.199 149.046 71.571C149.214 71.943 149.298 72.381 149.298 72.885H145.581L145.761 72.732C145.761 73.092 145.824 73.401 145.95 73.659C146.082 73.917 146.265 74.115 146.499 74.253C146.733 74.385 147 74.451 147.3 74.451C147.618 74.451 147.885 74.376 148.101 74.226C148.323 74.076 148.494 73.878 148.614 73.632L149.235 73.947C149.121 74.181 148.968 74.385 148.776 74.559C148.59 74.733 148.368 74.868 148.11 74.964C147.858 75.06 147.576 75.108 147.264 75.108ZM145.806 72.426L145.617 72.282H148.722L148.533 72.435C148.533 72.147 148.476 71.898 148.362 71.688C148.248 71.478 148.095 71.316 147.903 71.202C147.711 71.088 147.489 71.031 147.237 71.031C146.991 71.031 146.757 71.088 146.535 71.202C146.319 71.316 146.142 71.478 146.004 71.688C145.872 71.892 145.806 72.138 145.806 72.426ZM150.602 72.561C150.602 72.075 150.695 71.682 150.881 71.382C151.067 71.076 151.304 70.851 151.592 70.707C151.886 70.557 152.195 70.482 152.519 70.482V71.157C152.255 71.157 152 71.202 151.754 71.292C151.514 71.376 151.316 71.517 151.16 71.715C151.004 71.913 150.926 72.183 150.926 72.525L150.602 72.561ZM150.206 75V70.5H150.926V75H150.206ZM155.218 75.108C154.78 75.108 154.393 75.009 154.057 74.811C153.721 74.607 153.457 74.328 153.265 73.974C153.079 73.62 152.986 73.212 152.986 72.75C152.986 72.288 153.079 71.88 153.265 71.526C153.457 71.172 153.718 70.896 154.048 70.698C154.384 70.494 154.768 70.392 155.2 70.392C155.62 70.392 155.983 70.497 156.289 70.707C156.595 70.911 156.832 71.199 157 71.571C157.168 71.943 157.252 72.381 157.252 72.885H153.535L153.715 72.732C153.715 73.092 153.778 73.401 153.904 73.659C154.036 73.917 154.219 74.115 154.453 74.253C154.687 74.385 154.954 74.451 155.254 74.451C155.572 74.451 155.839 74.376 156.055 74.226C156.277 74.076 156.448 73.878 156.568 73.632L157.189 73.947C157.075 74.181 156.922 74.385 156.73 74.559C156.544 74.733 156.322 74.868 156.064 74.964C155.812 75.06 155.53 75.108 155.218 75.108ZM153.76 72.426L153.571 72.282H156.676L156.487 72.435C156.487 72.147 156.43 71.898 156.316 71.688C156.202 71.478 156.049 71.316 155.857 71.202C155.665 71.088 155.443 71.031 155.191 71.031C154.945 71.031 154.711 71.088 154.489 71.202C154.273 71.316 154.096 71.478 153.958 71.688C153.826 71.892 153.76 72.138 153.76 72.426ZM161.49 75L161.454 74.163V68.7H162.174V75H161.49ZM159.933 75.108C159.531 75.108 159.177 75.009 158.871 74.811C158.565 74.613 158.325 74.337 158.151 73.983C157.983 73.623 157.899 73.212 157.899 72.75C157.899 72.282 157.983 71.871 158.151 71.517C158.325 71.163 158.565 70.887 158.871 70.689C159.177 70.491 159.531 70.392 159.933 70.392C160.311 70.392 160.641 70.491 160.923 70.689C161.211 70.887 161.433 71.163 161.589 71.517C161.745 71.871 161.823 72.282 161.823 72.75C161.823 73.212 161.745 73.623 161.589 73.983C161.433 74.337 161.211 74.613 160.923 74.811C160.641 75.009 160.311 75.108 159.933 75.108ZM160.095 74.451C160.359 74.451 160.593 74.379 160.797 74.235C161.001 74.091 161.16 73.89 161.274 73.632C161.394 73.374 161.454 73.08 161.454 72.75C161.454 72.42 161.394 72.126 161.274 71.868C161.16 71.61 161.001 71.409 160.797 71.265C160.593 71.121 160.356 71.049 160.086 71.049C159.804 71.049 159.552 71.121 159.33 71.265C159.114 71.409 158.943 71.61 158.817 71.868C158.691 72.126 158.628 72.42 158.628 72.75C158.628 73.08 158.691 73.374 158.817 73.632C158.943 73.89 159.117 74.091 159.339 74.235C159.561 74.379 159.813 74.451 160.095 74.451ZM167.232 75.108C166.902 75.108 166.614 75.06 166.368 74.964C166.122 74.862 165.915 74.73 165.747 74.568C165.585 74.406 165.468 74.229 165.396 74.037L166.026 73.776C166.128 73.98 166.281 74.145 166.485 74.271C166.689 74.397 166.914 74.46 167.16 74.46C167.442 74.46 167.679 74.406 167.871 74.298C168.063 74.184 168.159 74.025 168.159 73.821C168.159 73.635 168.087 73.485 167.943 73.371C167.805 73.257 167.598 73.164 167.322 73.092L166.89 72.975C166.482 72.867 166.164 72.705 165.936 72.489C165.708 72.267 165.594 72.018 165.594 71.742C165.594 71.316 165.732 70.986 166.008 70.752C166.29 70.512 166.707 70.392 167.259 70.392C167.523 70.392 167.763 70.431 167.979 70.509C168.195 70.587 168.381 70.698 168.537 70.842C168.693 70.98 168.807 71.145 168.879 71.337L168.249 71.616C168.171 71.412 168.042 71.265 167.862 71.175C167.682 71.085 167.463 71.04 167.205 71.04C166.929 71.04 166.713 71.1 166.557 71.22C166.401 71.334 166.323 71.496 166.323 71.706C166.323 71.826 166.386 71.94 166.512 72.048C166.644 72.15 166.836 72.234 167.088 72.3L167.538 72.417C167.832 72.489 168.078 72.597 168.276 72.741C168.474 72.879 168.624 73.038 168.726 73.218C168.828 73.398 168.879 73.59 168.879 73.794C168.879 74.064 168.807 74.298 168.663 74.496C168.519 74.694 168.324 74.847 168.078 74.955C167.832 75.057 167.55 75.108 167.232 75.108ZM171.542 75.108C171.104 75.108 170.765 74.994 170.525 74.766C170.285 74.538 170.165 74.217 170.165 73.803V69.096H170.885V73.731C170.885 73.959 170.945 74.136 171.065 74.262C171.191 74.382 171.365 74.442 171.587 74.442C171.659 74.442 171.728 74.433 171.794 74.415C171.866 74.391 171.959 74.337 172.073 74.253L172.352 74.838C172.196 74.94 172.055 75.009 171.929 75.045C171.803 75.087 171.674 75.108 171.542 75.108ZM169.382 71.139V70.5H172.235V71.139H169.382ZM176.338 75L176.293 74.172V70.5H177.013V75H176.338ZM173.134 72.804V70.5H173.854V72.804H173.134ZM173.854 72.804C173.854 73.248 173.905 73.587 174.007 73.821C174.109 74.055 174.25 74.217 174.43 74.307C174.616 74.391 174.823 74.433 175.051 74.433C175.441 74.433 175.744 74.292 175.96 74.01C176.182 73.728 176.293 73.335 176.293 72.831H176.644C176.644 73.305 176.575 73.713 176.437 74.055C176.299 74.397 176.098 74.658 175.834 74.838C175.576 75.018 175.258 75.108 174.88 75.108C174.532 75.108 174.226 75.039 173.962 74.901C173.698 74.757 173.494 74.532 173.35 74.226C173.206 73.914 173.134 73.512 173.134 73.02V72.804H173.854ZM181.6 75L181.564 74.163V68.7H182.284V75H181.6ZM180.043 75.108C179.641 75.108 179.287 75.009 178.981 74.811C178.675 74.613 178.435 74.337 178.261 73.983C178.093 73.623 178.009 73.212 178.009 72.75C178.009 72.282 178.093 71.871 178.261 71.517C178.435 71.163 178.675 70.887 178.981 70.689C179.287 70.491 179.641 70.392 180.043 70.392C180.421 70.392 180.751 70.491 181.033 70.689C181.321 70.887 181.543 71.163 181.699 71.517C181.855 71.871 181.933 72.282 181.933 72.75C181.933 73.212 181.855 73.623 181.699 73.983C181.543 74.337 181.321 74.613 181.033 74.811C180.751 75.009 180.421 75.108 180.043 75.108ZM180.205 74.451C180.469 74.451 180.703 74.379 180.907 74.235C181.111 74.091 181.27 73.89 181.384 73.632C181.504 73.374 181.564 73.08 181.564 72.75C181.564 72.42 181.504 72.126 181.384 71.868C181.27 71.61 181.111 71.409 180.907 71.265C180.703 71.121 180.466 71.049 180.196 71.049C179.914 71.049 179.662 71.121 179.44 71.265C179.224 71.409 179.053 71.61 178.927 71.868C178.801 72.126 178.738 72.42 178.738 72.75C178.738 73.08 178.801 73.374 178.927 73.632C179.053 73.89 179.227 74.091 179.449 74.235C179.671 74.379 179.923 74.451 180.205 74.451ZM183.948 76.908C183.834 76.908 183.702 76.884 183.552 76.836C183.402 76.794 183.243 76.737 183.075 76.665L183.345 76.062C183.483 76.122 183.603 76.167 183.705 76.197C183.813 76.227 183.897 76.242 183.957 76.242C184.119 76.242 184.251 76.197 184.353 76.107C184.461 76.023 184.551 75.9 184.623 75.738L185.136 74.514L186.801 70.5H187.575L185.415 75.63C185.301 75.894 185.181 76.122 185.055 76.314C184.935 76.506 184.788 76.653 184.614 76.755C184.44 76.857 184.218 76.908 183.948 76.908ZM184.938 75L182.994 70.5H183.759L185.433 74.505L185.649 75H184.938ZM192.511 75.108C192.067 75.108 191.674 75.009 191.332 74.811C190.99 74.607 190.723 74.328 190.531 73.974C190.339 73.62 190.243 73.212 190.243 72.75C190.243 72.288 190.336 71.88 190.522 71.526C190.714 71.172 190.981 70.896 191.323 70.698C191.665 70.494 192.055 70.392 192.493 70.392C192.925 70.392 193.312 70.491 193.654 70.689C193.996 70.887 194.257 71.166 194.437 71.526L193.78 71.823C193.66 71.583 193.486 71.397 193.258 71.265C193.03 71.127 192.769 71.058 192.475 71.058C192.181 71.058 191.92 71.13 191.692 71.274C191.47 71.418 191.293 71.619 191.161 71.877C191.035 72.129 190.972 72.42 190.972 72.75C190.972 73.08 191.035 73.374 191.161 73.632C191.293 73.884 191.473 74.082 191.701 74.226C191.935 74.37 192.199 74.442 192.493 74.442C192.787 74.442 193.048 74.367 193.276 74.217C193.51 74.067 193.687 73.857 193.807 73.587L194.464 73.884C194.284 74.268 194.023 74.568 193.681 74.784C193.339 75 192.949 75.108 192.511 75.108ZM197.362 75.108C196.924 75.108 196.534 75.009 196.192 74.811C195.856 74.607 195.592 74.328 195.4 73.974C195.208 73.62 195.112 73.212 195.112 72.75C195.112 72.288 195.205 71.88 195.391 71.526C195.583 71.172 195.847 70.896 196.183 70.698C196.525 70.494 196.912 70.392 197.344 70.392C197.788 70.392 198.178 70.494 198.514 70.698C198.856 70.896 199.12 71.172 199.306 71.526C199.498 71.88 199.594 72.288 199.594 72.75C199.594 73.212 199.498 73.62 199.306 73.974C199.12 74.328 198.859 74.607 198.523 74.811C198.187 75.009 197.8 75.108 197.362 75.108ZM197.362 74.442C197.662 74.442 197.923 74.37 198.145 74.226C198.367 74.082 198.541 73.884 198.667 73.632C198.799 73.38 198.865 73.086 198.865 72.75C198.865 72.414 198.799 72.12 198.667 71.868C198.541 71.616 198.364 71.418 198.136 71.274C197.908 71.13 197.644 71.058 197.344 71.058C197.05 71.058 196.789 71.13 196.561 71.274C196.339 71.418 196.162 71.616 196.03 71.868C195.904 72.12 195.841 72.414 195.841 72.75C195.841 73.08 195.904 73.374 196.03 73.632C196.162 73.884 196.342 74.082 196.57 74.226C196.804 74.37 197.068 74.442 197.362 74.442ZM200.594 75V70.5H201.269L201.305 71.13C201.443 70.89 201.62 70.707 201.836 70.581C202.052 70.455 202.304 70.392 202.592 70.392C202.952 70.392 203.258 70.476 203.51 70.644C203.768 70.812 203.954 71.067 204.068 71.409C204.194 71.079 204.377 70.827 204.617 70.653C204.863 70.479 205.154 70.392 205.49 70.392C205.994 70.392 206.39 70.56 206.678 70.896C206.972 71.232 207.116 71.742 207.11 72.426V75H206.39V72.696C206.39 72.252 206.342 71.913 206.246 71.679C206.156 71.445 206.033 71.286 205.877 71.202C205.721 71.112 205.541 71.067 205.337 71.067C204.983 71.067 204.707 71.208 204.509 71.49C204.311 71.766 204.212 72.159 204.212 72.669V75H203.492V72.696C203.492 72.252 203.444 71.913 203.348 71.679C203.258 71.445 203.132 71.286 202.97 71.202C202.814 71.112 202.634 71.067 202.43 71.067C202.082 71.067 201.809 71.208 201.611 71.49C201.413 71.766 201.314 72.159 201.314 72.669V75H200.594ZM208.294 76.8V70.5H208.969L209.014 71.328V76.8H208.294ZM210.535 75.108C210.157 75.108 209.824 75.009 209.536 74.811C209.254 74.613 209.035 74.337 208.879 73.983C208.723 73.623 208.645 73.212 208.645 72.75C208.645 72.282 208.723 71.871 208.879 71.517C209.035 71.163 209.254 70.887 209.536 70.689C209.824 70.491 210.157 70.392 210.535 70.392C210.937 70.392 211.291 70.491 211.597 70.689C211.903 70.887 212.14 71.163 212.308 71.517C212.482 71.871 212.569 72.282 212.569 72.75C212.569 73.212 212.482 73.623 212.308 73.983C212.14 74.337 211.903 74.613 211.597 74.811C211.291 75.009 210.937 75.108 210.535 75.108ZM210.373 74.451C210.655 74.451 210.904 74.379 211.12 74.235C211.342 74.091 211.516 73.89 211.642 73.632C211.774 73.374 211.84 73.08 211.84 72.75C211.84 72.42 211.777 72.126 211.651 71.868C211.531 71.61 211.36 71.409 211.138 71.265C210.916 71.121 210.664 71.049 210.382 71.049C210.118 71.049 209.881 71.121 209.671 71.265C209.467 71.409 209.305 71.61 209.185 71.868C209.071 72.126 209.014 72.42 209.014 72.75C209.014 73.08 209.071 73.374 209.185 73.632C209.305 73.89 209.467 74.091 209.671 74.235C209.875 74.379 210.109 74.451 210.373 74.451ZM216.339 75L216.303 74.262V72.624C216.303 72.27 216.264 71.979 216.186 71.751C216.108 71.517 215.985 71.34 215.817 71.22C215.649 71.1 215.43 71.04 215.16 71.04C214.914 71.04 214.701 71.091 214.521 71.193C214.347 71.289 214.203 71.445 214.089 71.661L213.441 71.409C213.555 71.199 213.693 71.019 213.855 70.869C214.017 70.713 214.206 70.596 214.422 70.518C214.638 70.434 214.884 70.392 215.16 70.392C215.58 70.392 215.925 70.476 216.195 70.644C216.471 70.806 216.678 71.049 216.816 71.373C216.954 71.691 217.02 72.087 217.014 72.561L217.005 75H216.339ZM214.989 75.108C214.461 75.108 214.047 74.988 213.747 74.748C213.453 74.502 213.306 74.163 213.306 73.731C213.306 73.275 213.456 72.927 213.756 72.687C214.062 72.441 214.488 72.318 215.034 72.318H216.321V72.921H215.196C214.776 72.921 214.476 72.99 214.296 73.128C214.122 73.266 214.035 73.464 214.035 73.722C214.035 73.956 214.122 74.142 214.296 74.28C214.47 74.412 214.713 74.478 215.025 74.478C215.283 74.478 215.508 74.424 215.7 74.316C215.892 74.202 216.039 74.043 216.141 73.839C216.249 73.629 216.303 73.383 216.303 73.101H216.609C216.609 73.713 216.471 74.202 216.195 74.568C215.919 74.928 215.517 75.108 214.989 75.108ZM218.154 75V70.5H218.829L218.874 71.328V75H218.154ZM221.313 75V72.696H222.033V75H221.313ZM221.313 72.696C221.313 72.252 221.262 71.913 221.16 71.679C221.058 71.445 220.917 71.286 220.737 71.202C220.557 71.112 220.353 71.067 220.125 71.067C219.729 71.067 219.42 71.208 219.198 71.49C218.982 71.766 218.874 72.159 218.874 72.669H218.523C218.523 72.195 218.592 71.787 218.73 71.445C218.868 71.103 219.069 70.842 219.333 70.662C219.597 70.482 219.915 70.392 220.287 70.392C220.641 70.392 220.947 70.464 221.205 70.608C221.469 70.746 221.673 70.968 221.817 71.274C221.967 71.58 222.039 71.982 222.033 72.48V72.696H221.313ZM223.218 75V70.5H223.938V75H223.218ZM223.587 69.456C223.467 69.456 223.362 69.411 223.272 69.321C223.182 69.231 223.137 69.126 223.137 69.006C223.137 68.88 223.182 68.775 223.272 68.691C223.362 68.601 223.467 68.556 223.587 68.556C223.713 68.556 223.818 68.601 223.902 68.691C223.992 68.775 224.037 68.88 224.037 69.006C224.037 69.126 223.992 69.231 223.902 69.321C223.818 69.411 223.713 69.456 223.587 69.456ZM227.254 75.108C226.816 75.108 226.426 75.009 226.084 74.811C225.748 74.607 225.484 74.328 225.292 73.974C225.1 73.62 225.004 73.212 225.004 72.75C225.004 72.288 225.097 71.88 225.283 71.526C225.475 71.172 225.739 70.896 226.075 70.698C226.417 70.494 226.804 70.392 227.236 70.392C227.68 70.392 228.07 70.494 228.406 70.698C228.748 70.896 229.012 71.172 229.198 71.526C229.39 71.88 229.486 72.288 229.486 72.75C229.486 73.212 229.39 73.62 229.198 73.974C229.012 74.328 228.751 74.607 228.415 74.811C228.079 75.009 227.692 75.108 227.254 75.108ZM227.254 74.442C227.554 74.442 227.815 74.37 228.037 74.226C228.259 74.082 228.433 73.884 228.559 73.632C228.691 73.38 228.757 73.086 228.757 72.75C228.757 72.414 228.691 72.12 228.559 71.868C228.433 71.616 228.256 71.418 228.028 71.274C227.8 71.13 227.536 71.058 227.236 71.058C226.942 71.058 226.681 71.13 226.453 71.274C226.231 71.418 226.054 71.616 225.922 71.868C225.796 72.12 225.733 72.414 225.733 72.75C225.733 73.08 225.796 73.374 225.922 73.632C226.054 73.884 226.234 74.082 226.462 74.226C226.696 74.37 226.96 74.442 227.254 74.442ZM230.485 75V70.5H231.16L231.205 71.328V75H230.485ZM233.644 75V72.696H234.364V75H233.644ZM233.644 72.696C233.644 72.252 233.593 71.913 233.491 71.679C233.389 71.445 233.248 71.286 233.068 71.202C232.888 71.112 232.684 71.067 232.456 71.067C232.06 71.067 231.751 71.208 231.529 71.49C231.313 71.766 231.205 72.159 231.205 72.669H230.854C230.854 72.195 230.923 71.787 231.061 71.445C231.199 71.103 231.4 70.842 231.664 70.662C231.928 70.482 232.246 70.392 232.618 70.392C232.972 70.392 233.278 70.464 233.536 70.608C233.8 70.746 234.004 70.968 234.148 71.274C234.298 71.58 234.37 71.982 234.364 72.48V72.696H233.644Z" fill="white"/>
</g>
<path d="M140.775 57.3C139.892 57.3 139.067 57.1917 138.3 56.975C137.533 56.7583 136.85 56.4583 136.25 56.075C135.65 55.675 135.15 55.2333 134.75 54.75C134.367 54.2667 134.117 53.7583 134 53.225L137.35 52.225C137.567 52.7917 137.95 53.2833 138.5 53.7C139.05 54.1 139.742 54.3083 140.575 54.325C141.458 54.3417 142.175 54.15 142.725 53.75C143.292 53.35 143.575 52.8333 143.575 52.2C143.575 51.65 143.35 51.1917 142.9 50.825C142.467 50.4417 141.867 50.15 141.1 49.95L138.825 49.35C137.975 49.1333 137.225 48.8083 136.575 48.375C135.925 47.925 135.417 47.375 135.05 46.725C134.683 46.075 134.5 45.3167 134.5 44.45C134.5 42.8 135.042 41.5167 136.125 40.6C137.225 39.6667 138.775 39.2 140.775 39.2C141.892 39.2 142.867 39.3667 143.7 39.7C144.55 40.0167 145.258 40.475 145.825 41.075C146.392 41.675 146.825 42.3833 147.125 43.2L143.8 44.225C143.6 43.6583 143.233 43.175 142.7 42.775C142.167 42.375 141.492 42.175 140.675 42.175C139.842 42.175 139.183 42.3667 138.7 42.75C138.233 43.1333 138 43.675 138 44.375C138 44.925 138.183 45.3583 138.55 45.675C138.933 45.9917 139.45 46.2333 140.1 46.4L142.4 46.975C143.9 47.3417 145.067 48 145.9 48.95C146.733 49.9 147.15 50.9583 147.15 52.125C147.15 53.1583 146.9 54.0667 146.4 54.85C145.9 55.6167 145.175 56.2167 144.225 56.65C143.275 57.0833 142.125 57.3 140.775 57.3ZM149.736 62V44.5H152.836L153.036 46.8V62H149.736ZM156.811 57.3C155.761 57.3 154.869 57.0333 154.136 56.5C153.419 55.9667 152.869 55.2083 152.486 54.225C152.102 53.2417 151.911 52.0833 151.911 50.75C151.911 49.4 152.102 48.2417 152.486 47.275C152.869 46.2917 153.419 45.5333 154.136 45C154.869 44.4667 155.761 44.2 156.811 44.2C157.961 44.2 158.952 44.4667 159.786 45C160.636 45.5333 161.294 46.2917 161.761 47.275C162.227 48.2417 162.461 49.4 162.461 50.75C162.461 52.0833 162.227 53.2417 161.761 54.225C161.294 55.2083 160.636 55.9667 159.786 56.5C158.952 57.0333 157.961 57.3 156.811 57.3ZM155.961 54.275C156.561 54.275 157.086 54.125 157.536 53.825C158.002 53.525 158.369 53.1083 158.636 52.575C158.902 52.0417 159.036 51.4333 159.036 50.75C159.036 50.0667 158.902 49.4583 158.636 48.925C158.386 48.3917 158.027 47.9833 157.561 47.7C157.111 47.4 156.586 47.25 155.986 47.25C155.419 47.25 154.911 47.4 154.461 47.7C154.011 48 153.661 48.4167 153.411 48.95C153.161 49.4667 153.036 50.0667 153.036 50.75C153.036 51.4333 153.161 52.0417 153.411 52.575C153.661 53.1083 154.002 53.525 154.436 53.825C154.886 54.125 155.394 54.275 155.961 54.275ZM166.95 50.425C166.95 49.075 167.209 47.9583 167.725 47.075C168.259 46.1917 168.934 45.5333 169.75 45.1C170.584 44.6667 171.45 44.45 172.35 44.45V47.65C171.584 47.65 170.859 47.7417 170.175 47.925C169.509 48.1083 168.967 48.4083 168.55 48.825C168.134 49.2417 167.925 49.775 167.925 50.425H166.95ZM164.625 57V44.5H167.925V57H164.625ZM179.973 57.3C178.706 57.3 177.573 57.025 176.573 56.475C175.59 55.9083 174.815 55.1333 174.248 54.15C173.698 53.1667 173.423 52.0333 173.423 50.75C173.423 49.4667 173.698 48.3333 174.248 47.35C174.798 46.3667 175.565 45.6 176.548 45.05C177.531 44.4833 178.656 44.2 179.923 44.2C181.206 44.2 182.34 44.4833 183.323 45.05C184.306 45.6 185.073 46.3667 185.623 47.35C186.173 48.3333 186.448 49.4667 186.448 50.75C186.448 52.0333 186.173 53.1667 185.623 54.15C185.073 55.1333 184.306 55.9083 183.323 56.475C182.356 57.025 181.24 57.3 179.973 57.3ZM179.973 54.25C180.59 54.25 181.131 54.1 181.598 53.8C182.065 53.5 182.423 53.0917 182.673 52.575C182.94 52.0417 183.073 51.4333 183.073 50.75C183.073 50.0667 182.94 49.4667 182.673 48.95C182.406 48.4167 182.031 48 181.548 47.7C181.081 47.4 180.54 47.25 179.923 47.25C179.323 47.25 178.781 47.4 178.298 47.7C177.831 48 177.465 48.4167 177.198 48.95C176.931 49.4667 176.798 50.0667 176.798 50.75C176.798 51.4333 176.931 52.0417 177.198 52.575C177.465 53.0917 177.84 53.5 178.323 53.8C178.806 54.1 179.356 54.25 179.973 54.25ZM196.874 57L196.674 54.7V44.5H199.974V57H196.874ZM188.399 50.9V44.5H191.699V50.9H188.399ZM191.699 50.9C191.699 51.7333 191.791 52.3917 191.974 52.875C192.174 53.3417 192.449 53.6833 192.799 53.9C193.166 54.1 193.574 54.2 194.024 54.2C194.891 54.2167 195.549 53.9583 195.999 53.425C196.449 52.875 196.674 52.0833 196.674 51.05H197.799C197.799 52.3833 197.599 53.5167 197.199 54.45C196.799 55.3667 196.249 56.075 195.549 56.575C194.849 57.0583 194.024 57.3 193.074 57.3C192.074 57.3 191.224 57.1 190.524 56.7C189.824 56.3 189.291 55.6833 188.924 54.85C188.574 54 188.399 52.9083 188.399 51.575V50.9H191.699ZM207.983 57.3C206.6 57.3 205.55 56.9583 204.833 56.275C204.133 55.5917 203.783 54.6167 203.783 53.35V40.6H207.083V52.625C207.083 53.1583 207.2 53.5667 207.433 53.85C207.667 54.1167 208.008 54.25 208.458 54.25C208.625 54.25 208.808 54.2167 209.008 54.15C209.208 54.0667 209.417 53.95 209.633 53.8L210.783 56.275C210.383 56.575 209.933 56.8167 209.433 57C208.95 57.2 208.467 57.3 207.983 57.3ZM201.758 47.3V44.5H210.208V47.3H201.758Z" fill="white"/>
<path d="M201.017 206.196C199.449 206.077 197.946 206.147 196.459 206.265C194.259 206.439 192.065 206.276 189.87 206.3C187.941 206.322 186.014 206.311 184.077 206.057C183.181 205.94 182.126 205.94 181.149 206.224C180.41 206.439 179.595 206.241 178.819 206.267C177.567 206.309 176.295 206.575 175.029 206.316C174.7 206.248 174.362 206.338 174.027 206.435C173.345 206.633 172.648 206.764 171.938 206.509C171.453 206.335 170.971 206.525 170.508 206.593C168.833 206.838 167.119 206.759 165.468 206.976C161.903 207.446 158.284 207.326 154.739 207.966C153.61 208.17 152.413 208.11 151.251 208.076C150.285 208.047 149.269 206.358 149.389 205.305C149.54 203.977 150.098 202.796 150.953 201.783C152.395 200.075 154.083 198.581 156.224 197.593C156.502 197.464 156.773 197.324 157.044 197.184C157.192 197.109 157.354 197.044 157.409 196.812C157.188 196.422 156.865 196.09 156.34 195.943C156.207 195.906 156.041 195.846 155.976 195.748C155.024 194.32 153.166 193.64 152.382 192.084C152.203 191.729 151.855 191.534 151.583 191.289C150.916 190.685 150.778 189.836 150.275 189.157C149.986 188.768 149.742 188.353 149.337 188.064C148.673 187.59 148.741 186.781 148.286 186.217C147.543 186.131 146.911 187.74 146.038 186.323C145.783 186.29 145.516 186.401 145.29 186.545C144.772 186.877 144.368 186.911 143.888 186.426C143.483 186.018 142.808 186.148 142.265 186.09C140.612 185.913 139.241 185.148 137.778 184.527C136.195 183.854 135.215 182.617 134.234 181.461C133.602 180.716 133.092 179.701 133.027 178.637C132.913 176.775 133.175 174.967 133.516 173.118C133.827 171.437 134.715 170.003 135.122 168.424C135.532 166.831 136.616 165.507 136.909 163.898C136.998 163.414 137.548 163.123 137.726 162.629C137.861 162.252 138.023 161.904 137.964 161.499C137.933 161.289 137.939 161.088 138.146 160.929C138.994 160.278 139.313 159.382 139.597 158.439C139.879 157.505 140.093 156.529 141.008 155.849C141.431 155.534 141.298 154.898 141.615 154.494C142.527 153.333 143.413 152.158 144.182 150.91C144.293 150.73 144.553 150.543 144.433 150.367C143.902 149.587 144.318 148.753 144.212 147.952C144.134 147.369 144.42 146.821 144.584 146.289C145.18 144.368 146.639 143.072 148.508 142.137C149.09 141.846 149.712 141.651 150.391 141.755C150.964 141.843 151.391 141.438 151.948 141.413C154.309 141.306 156.457 141.777 158.357 143.329C160.033 141.179 162.095 139.47 164.645 138.357C164.748 138.049 164.571 137.91 164.37 137.805C163.926 137.572 163.667 137.212 163.483 136.791C163.431 136.672 163.374 136.531 163.271 136.46C161.771 135.42 161.199 133.918 160.807 132.324C160.686 131.833 160.223 131.483 160.15 130.973C159.874 129.033 159.593 127.105 160.398 125.19C160.896 124.004 161.203 122.753 161.743 121.576C162.405 120.13 163.542 118.978 164.542 117.744C165.026 117.147 165.555 116.57 166.193 116.092C168.433 114.411 170.552 112.52 173.492 111.917C174.681 111.674 174.995 111.047 174.827 110.136C174.639 109.125 174.358 108.126 174.334 107.003C173.255 107.502 172.31 107.943 171.325 108.317C169.57 108.984 167.781 109.114 165.93 108.977C165.367 108.935 164.797 108.881 164.237 108.917C163.781 108.946 163.47 108.875 163.269 108.472C163.088 108.108 163.266 107.875 163.458 107.554C164.257 106.215 165.458 105.293 166.811 104.452C168.707 103.273 170.798 102.995 173 103.076C173.734 103.103 174.418 103.222 175.082 103.618C175.584 103.917 176.243 103.946 176.807 103.471C178.32 102.197 180.232 101.807 182.156 101.338C183.2 101.084 184.231 101.325 185.248 101.033C185.675 100.911 186.276 101.139 186.619 101.495C186.958 101.847 186.647 102.224 186.485 102.586C185.385 105.042 183.304 106.469 180.655 107.308C180.548 107.342 180.442 107.385 180.331 107.406C179.071 107.646 179.069 107.645 179.26 108.838C179.305 109.122 179.369 109.403 179.423 109.686C179.577 110.48 180.277 111.069 181.056 110.762C182.084 110.357 182.938 110.892 183.872 110.87C183.926 110.869 183.98 110.904 184.036 110.91C186.953 111.241 189.243 112.75 191.391 114.398C192.361 115.143 193.092 116.181 193.86 117.15C194.475 117.927 194.498 118.911 195.215 119.6C195.359 119.738 195.489 120.009 195.441 120.174C195.153 121.177 195.991 121.873 196.214 122.731C196.246 122.857 196.356 122.982 196.342 123.098C196.143 124.715 197.027 126.246 196.808 127.85C196.658 128.944 196.72 130.037 196.649 131.128C196.621 131.565 196.067 131.823 196.079 132.136C196.133 133.476 194.724 134.193 194.534 135.407C194.516 135.522 194.397 135.633 194.304 135.73C193.041 137.058 191.723 138.319 190.015 139.196C189.286 139.57 188.65 140.1 187.637 140.338C191.454 140.473 194.786 141.391 197.772 143.296C197.982 143.43 198.201 143.552 198.415 143.68C199.027 144.047 199.416 144.165 200.072 143.489C200.851 142.687 201.986 142.108 203.311 142.192C204.293 142.254 205.261 142.181 206.253 142.464C208.172 143.011 209.691 144.844 209.468 146.699C209.415 147.145 209.532 147.44 209.828 147.751C210.567 148.528 211.403 149.234 211.996 150.119C212.563 150.965 213.017 151.879 213.634 152.691C214.798 154.225 215.1 156.092 216.083 157.713C217.373 159.839 218.253 162.155 219.075 164.487C220.131 167.48 220.305 170.62 221.126 173.64C221.507 175.041 221.654 176.464 221.856 177.873C222.126 179.758 222.053 181.667 221.327 183.511C221.046 184.225 220.733 184.897 220.247 185.513C219.717 186.185 219.131 186.765 218.211 186.971C218.02 187.013 217.786 187.053 217.665 187.173C216.706 188.125 215.43 187.893 214.249 187.94C212.989 187.99 211.724 187.945 210.462 187.929C210.005 187.923 209.57 187.798 209.128 187.685C208.179 187.442 207.909 187.67 207.577 188.527C207.278 189.297 206.985 190.101 206.342 190.714C205.984 191.056 205.839 191.514 205.581 191.902C204.514 193.508 203.243 194.951 201.849 196.316C201.718 196.444 201.645 196.622 201.544 196.779C201.795 197.057 202.137 196.995 202.429 197.033C203.118 197.123 203.692 197.38 204.281 197.739C205.592 198.539 207.006 199.195 208.338 199.968C209.752 200.79 210.894 201.886 211.768 203.198C212.167 203.798 211.748 204.53 210.99 204.689C210.549 204.782 210.112 204.899 209.68 205.025C207.675 205.611 205.576 205.6 203.518 205.849C202.705 205.947 201.897 206.074 201.017 206.196ZM201.601 150.119C200.614 148.432 199.644 146.79 197.77 145.683C195.923 144.592 194.047 143.58 191.976 142.954C190.699 142.568 189.495 141.991 188.151 141.762C187.303 141.617 186.498 141.271 185.665 141.044C185.077 140.883 184.663 141.319 184.164 141.471C183.21 141.762 182.197 141.694 181.223 141.839C178.31 142.273 175.447 142.324 172.595 141.442C171.864 141.216 171.111 140.953 170.384 140.812C169.211 140.583 168.206 140.12 167.164 139.647C166.52 139.355 165.838 139.346 165.182 139.827C163.964 140.719 162.795 141.654 161.753 142.715C161.164 143.316 160.63 143.962 160.067 144.584C159.199 145.542 159.755 146.655 159.649 147.697C159.534 148.834 159.361 149.966 159.185 151.096C159.159 151.258 159.01 151.457 158.856 151.539C158.142 151.914 158.148 152.519 158.267 153.117C158.398 153.778 158.343 154.412 158.186 155.054C158.037 155.664 157.869 156.273 157.771 156.891C157.354 159.537 156.404 162.033 155.292 164.487C155.043 165.037 154.623 165.498 154.48 166.108C154.068 167.881 153.566 169.637 153.155 171.41C153.02 171.99 152.558 172.398 152.409 172.97C152.109 174.115 151.727 175.243 151.364 176.374C150.906 177.801 150.198 179.139 149.617 180.522C149.481 180.847 149.352 181.283 149.633 181.49C150.373 182.035 150.241 182.714 150.173 183.415C150.146 183.699 150.138 183.99 150.317 184.251C151.345 185.755 151.889 187.476 153.048 188.948C154.138 190.332 155.26 191.664 156.533 192.905C157.432 193.781 158.376 194.651 159.444 195.289C160.593 195.976 161.723 196.713 162.943 197.314C164.355 198.01 165.845 198.547 167.265 199.231C168.678 199.911 170.409 199.829 171.854 200.533C171.921 200.566 172.023 200.548 172.107 200.54C172.831 200.475 173.578 200.621 174.172 200.884C175.596 201.515 177.136 201.231 178.507 201.184C180.345 201.12 182.225 201.524 184.069 200.972C185.053 200.678 186.198 200.949 187.149 200.374C187.273 200.299 187.481 200.289 187.637 200.315C188.362 200.435 189.05 200.29 189.718 200.073C190.747 199.738 191.739 199.285 192.789 199.034C194.831 198.544 196.451 197.349 197.982 196.191C199.769 194.838 201.243 193.138 202.625 191.377C203.801 189.879 204.76 188.315 205.394 186.597C206.244 184.295 207.15 182 207.619 179.594C208.034 177.465 208.238 175.318 208.237 173.153C208.237 171.877 208.109 170.608 208.057 169.336C208.016 168.35 208.42 167.345 207.702 166.417C207.525 166.188 207.595 165.859 207.72 165.581C207.809 165.384 207.843 165.194 207.781 164.974C207.365 163.489 206.904 162.012 206.576 160.511C206.255 159.037 205.599 157.674 205.126 156.252C205.017 155.924 204.509 155.798 204.565 155.506C204.753 154.532 204.075 153.889 203.623 153.158C203.005 152.159 202.774 150.943 201.601 150.119ZM190.411 117.28C189.931 116.802 189.537 116.192 188.954 115.87C187.144 114.869 185.436 113.669 183.281 113.27C182.8 113.181 182.559 113.11 182.252 113.555C181.792 114.219 181.138 114.671 180.27 114.946C178.859 115.393 177.398 115.276 175.969 115.392C174.964 115.474 173.851 115.287 172.999 114.664C172.509 114.306 172.153 114.413 171.697 114.638C170.886 115.037 170.252 115.64 169.533 116.146C165.922 118.69 163.687 122.047 162.393 126.013C162.095 126.927 162.266 127.825 162.119 128.719C161.943 129.795 161.941 130.829 162.758 131.722C162.911 131.89 162.908 132.11 162.985 132.302C163.417 133.39 163.701 134.589 164.851 135.265C166.182 136.047 167.325 137.098 168.849 137.608C170.015 137.998 171.143 138.507 172.335 138.799C173.415 139.064 174.555 139.188 175.674 139.226C177.258 139.28 178.858 139.67 180.438 139.134C180.719 139.038 181.058 139.076 181.37 139.071C183.032 139.045 184.574 138.598 186.09 138.006C187.64 137.4 188.978 136.498 190.352 135.63C191.36 134.994 192.235 134.128 192.693 133.231C193.266 132.106 194.388 131.228 194.416 129.781C194.436 128.789 194.901 127.729 194.742 126.744C194.299 124.007 193.659 121.297 191.802 118.996C191.364 118.453 190.929 117.908 190.411 117.28ZM154.491 154.584C154.565 154.038 154.832 153.5 154.601 152.844C154.138 153.192 153.679 153.487 153.315 152.877C152.832 152.065 152.032 151.837 151.116 151.825C150.632 151.819 150.161 151.802 149.682 151.699C148.69 151.486 147.68 151.342 146.686 151.136C146.347 151.066 146.153 151.129 145.996 151.409C145.117 152.982 144.206 154.54 143.349 156.123C142.533 157.632 141.855 159.198 141.134 160.747C140.116 162.936 139.315 165.203 138.214 167.362C137.511 168.739 137.169 170.245 136.628 171.68C135.705 174.128 135.461 176.646 135.536 179.202C135.553 179.783 135.611 180.471 136.18 180.853C137.519 181.749 138.393 183.137 140.145 183.644C140.921 183.869 141.773 184.18 142.534 184.577C142.904 184.77 143.357 184.749 143.789 184.687C145.442 184.452 146.427 183.485 147.141 182.178C147.555 181.421 147.556 180.572 147.888 179.793C148.394 178.605 148.734 177.368 148.962 176.099C149.192 174.823 149.436 173.532 150.029 172.345C150.401 171.601 150.601 170.793 150.725 170.03C151.033 168.124 151.779 166.334 152.393 164.529C152.975 162.817 153.07 161.027 153.734 159.333C154.119 158.353 153.864 157.193 154.36 156.172C154.58 155.721 154.613 155.21 154.491 154.584ZM211.249 153.855C210.264 152.261 209.283 150.666 208.291 149.076C208.162 148.869 207.912 148.806 207.693 148.916C207.075 149.225 206.385 149.23 205.725 149.364C204.611 149.59 204.528 149.845 205.247 150.656C205.335 150.756 205.42 150.864 205.48 150.98C206.502 152.951 207.406 154.968 208.3 156.99C209.198 159.018 209.704 161.129 210.173 163.263C210.604 165.223 210.947 167.184 211.033 169.184C211.104 170.841 211.13 172.511 211.246 174.151C211.357 175.728 210.986 177.229 210.849 178.737C210.662 180.795 209.882 182.822 209.137 184.808C208.793 185.728 209.14 186.074 210.184 185.985C211.728 185.854 213.264 185.532 214.821 185.672C216.107 185.787 216.846 185.106 217.605 184.327C218.756 183.147 218.771 181.651 218.95 180.236C219.109 178.989 218.88 177.716 218.731 176.46C218.655 175.815 218.348 175.18 218.335 174.568C218.308 173.346 218.095 172.194 217.733 171.021C217.507 170.288 217.224 169.545 217.186 168.752C217.122 167.403 216.692 166.087 216.219 164.845C215.466 162.863 214.942 160.778 213.704 158.968C213.255 158.311 213.123 157.548 212.909 156.837C212.584 155.754 211.446 155.098 211.249 153.855ZM152.116 205.135C152.205 205.871 152.823 206.269 153.688 205.957C154.856 205.537 156.184 206.027 157.279 205.341C157.317 205.318 157.391 205.337 157.447 205.344C159.621 205.61 161.785 204.835 163.962 205.281C164.014 205.292 164.076 205.278 164.131 205.265C166.115 204.767 168.168 204.87 170.187 204.672C171.26 204.566 172.382 204.761 173.382 204.574C174.317 204.399 175.222 204.342 176.14 204.357C176.953 204.37 177.722 204.147 178.587 204.248C179.302 204.332 180.177 204.135 180.993 204.165C181.396 204.18 181.626 203.991 181.631 203.574C180.795 203.17 179.909 203.002 179.003 203.239C177.825 203.546 176.653 203.245 175.481 203.272C174.466 203.295 173.535 202.711 172.491 202.616C170.885 202.471 169.317 202.14 167.815 201.573C166.779 201.182 165.69 200.892 164.673 200.496C163.398 200.001 162.087 199.56 160.902 198.805C159.512 197.918 157.964 198.564 156.928 199.454C155.049 201.07 152.857 202.528 152.116 205.135ZM185.077 203.154C184.761 203.2 184.32 203.107 184.395 203.617C184.458 204.048 184.726 204.219 185.222 204.207C185.85 204.191 186.432 203.843 187.066 203.988C188.841 204.395 190.632 204.074 192.414 204.092C193.6 204.104 194.78 204.014 195.955 204.26C196.305 204.333 196.716 204.364 197.05 204.269C198.5 203.854 199.957 203.668 201.479 203.848C203.815 204.123 206.034 203.349 208.317 203.137C208.352 203.133 208.379 203.056 208.439 202.974C208.125 202.318 207.755 201.674 206.905 201.464C205.552 201.13 204.753 200.035 203.56 199.445C202.637 198.988 199.785 198.307 198.792 198.747C197.595 199.277 196.446 199.9 195.31 200.512C193.383 201.551 191.268 201.916 189.167 202.376C187.857 202.662 186.531 202.883 185.077 203.154ZM170.883 107.406C171.596 107.101 172.375 106.879 173.005 106.465C173.601 106.074 174.219 106.08 174.857 106.047C175.41 106.018 175.763 106.226 175.809 106.807C175.902 107.969 176.366 109.082 176.366 110.266C176.366 110.548 176.4 110.893 176.647 111.165C177.084 111.209 177.557 111.1 177.531 110.672C177.459 109.487 177.385 108.284 176.932 107.158C176.78 106.778 176.543 106.492 176.895 106.1C177.243 105.711 177.678 105.766 178.059 105.905C178.829 106.184 179.578 106.006 180.312 105.879C182.311 105.534 183.218 104.032 184.231 102.704C182.886 102.526 181.623 102.774 180.356 103.165C179.23 103.512 178.24 103.968 177.509 104.858C176.796 105.727 176.233 105.788 175.277 105.173C174.743 104.83 174.207 104.492 173.543 104.383C171.65 104.071 169.878 104.405 168.238 105.284C167.071 105.909 166.051 106.706 165.211 107.804C167.168 108.034 168.972 107.88 170.883 107.406ZM152.689 145.175C152.655 145.353 152.534 145.568 152.602 145.702C152.933 146.351 152.993 147.02 153.011 147.727C153.021 148.155 153.284 148.612 153.919 148.576C154.556 148.54 155.676 146.861 155.278 146.432C154.697 145.805 154.078 145.148 153.164 144.874C152.978 144.818 152.845 144.936 152.689 145.175ZM175.631 113.171C175.319 113.318 174.828 113.191 174.638 113.747C176.825 113.812 178.969 114.34 181.131 112.998C180.354 112.834 179.705 112.331 179.319 112.912C178.967 113.444 178.588 113.392 178.124 113.357C177.336 113.299 176.55 113.212 175.631 113.171ZM150.634 145.171C149.115 145.228 147.548 146.528 148.024 147.336C148.178 147.36 148.313 147.312 148.403 147.205C148.897 146.619 149.46 146.149 150.292 145.975C150.627 145.906 150.842 145.614 150.634 145.171ZM202.357 145.769C203.177 146.154 204.868 145.802 205.324 145.153C204.453 144.717 203.089 144.95 202.357 145.769Z" fill="white"/>
<path d="M167.869 127.848C168.207 126.786 169.374 126.312 170.647 126.653C171.236 126.811 171.741 128.109 171.498 128.839C171.168 129.824 170.247 130.286 169.196 129.997C169.034 129.952 168.861 129.937 168.7 129.887C168.081 129.696 167.5 129.497 167.842 128.692C167.939 128.465 167.863 128.175 167.869 127.848Z" fill="white"/>
<path d="M189.233 127.919C189.504 127.255 190.385 126.664 190.901 126.752C191.895 126.921 192.297 127.413 192.319 128.486C192.333 129.191 191.819 129.734 190.978 129.855C190.424 129.936 189.814 130.091 189.409 129.57C189.035 129.088 188.79 128.557 189.233 127.919Z" fill="white"/>
<defs>
<linearGradient id="paint0_linear_1_610" x1="0" y1="0" x2="272.562" y2="344.109" gradientUnits="userSpaceOnUse">
<stop offset="1" stop-color="#1F233F"/>
</linearGradient>
<clipPath id="clip0_1_610">
<rect width="353.5" height="280" fill="white"/>
</clipPath>
</defs>
</svg>
